<svg width="65" height="64" viewBox="0 0 65 64" fill="none" xmlns="http://www.w3.org/2000/svg">
<g style="mix-blend-mode:luminosity">
<g filter="url(#filter0_iiii_1383_4969)">
<path d="M41.3301 4.67194C40.9551 4.29684 40.4465 4.08605 39.9161 4.08594H13.3781C12.6355 4.08594 11.9233 4.38094 11.3982 4.90604C10.8731 5.43114 10.5781 6.14333 10.5781 6.88594V57.1139C10.5781 57.8565 10.8731 58.5687 11.3982 59.0938C11.9233 59.6189 12.6355 59.9139 13.3781 59.9139H51.6221C52.3647 59.9139 53.0769 59.6189 53.602 59.0938C54.1271 58.5687 54.4221 57.8565 54.4221 57.1139V18.5939C54.4223 18.331 54.3707 18.0706 54.2701 17.8276C54.1696 17.5846 54.0221 17.3638 53.8361 17.1779L41.3301 4.67194Z" fill="url(#paint0_linear_1383_4969)"/>
</g>
<g filter="url(#filter1_f_1383_4969)">
<path d="M40.0024 4.91298C40.0024 4.51098 40.1184 4.25298 39.8984 4.20898C40.1064 4.22298 40.4104 4.29898 40.6024 4.37498C40.8484 4.47098 40.5424 4.68498 40.7364 4.87298L40.7544 4.88898L53.2604 17.395C53.4464 17.5809 53.5939 17.8017 53.6944 18.0446C53.795 18.2876 53.8466 18.548 53.8464 18.811V18.937C53.8464 18.473 53.5104 18.195 53.2604 18.195H42.4024C41.7659 18.195 41.1555 17.9421 40.7054 17.492C40.2553 17.042 40.0024 16.4315 40.0024 15.795V4.91298Z" fill="#D2C5DF"/>
</g>
<g filter="url(#filter2_ii_1383_4969)">
<path d="M40.58 4.69584C40.58 4.29184 40.262 4.13384 40.042 4.08984C40.5276 4.12008 40.9855 4.32628 41.33 4.66984L53.836 17.1778C54.0597 17.4021 54.227 17.6763 54.324 17.9778C54.3885 18.1762 54.4215 18.3833 54.422 18.5918V18.7178C54.422 18.2538 54.086 17.9778 53.836 17.9778H42.978C42.6628 17.9778 42.3507 17.9158 42.0596 17.7952C41.7684 17.6745 41.5038 17.4978 41.2809 17.2749C41.0581 17.052 40.8813 16.7875 40.7607 16.4963C40.6401 16.2051 40.578 15.893 40.578 15.5778L40.58 4.69584Z" fill="url(#paint1_linear_1383_4969)"/>
</g>
<path d="M40.58 4.69584C40.58 4.29184 40.262 4.13384 40.042 4.08984C40.5276 4.12008 40.9855 4.32628 41.33 4.66984L53.836 17.1778C54.0597 17.4021 54.227 17.6763 54.324 17.9778C54.3885 18.1762 54.4215 18.3833 54.422 18.5918V18.7178C54.422 18.2538 54.086 17.9778 53.836 17.9778H42.978C42.6628 17.9778 42.3507 17.9158 42.0596 17.7952C41.7684 17.6745 41.5038 17.4978 41.2809 17.2749C41.0581 17.052 40.8813 16.7875 40.7607 16.4963C40.6401 16.2051 40.578 15.893 40.578 15.5778L40.58 4.69584Z" fill="url(#paint2_linear_1383_4969)"/>
<path d="M45.4141 23.9922H19.5701C19.0223 23.9922 18.5781 24.4363 18.5781 24.9842C18.5781 25.5321 19.0223 25.9762 19.5701 25.9762H45.4141C45.962 25.9762 46.4061 25.5321 46.4061 24.9842C46.4061 24.4363 45.962 23.9922 45.4141 23.9922Z" fill="url(#paint3_linear_1383_4969)"/>
<path d="M45.4141 29.9922H19.5701C19.0223 29.9922 18.5781 30.4363 18.5781 30.9842C18.5781 31.5321 19.0223 31.9762 19.5701 31.9762H45.4141C45.962 31.9762 46.4061 31.5321 46.4061 30.9842C46.4061 30.4363 45.962 29.9922 45.4141 29.9922Z" fill="url(#paint4_linear_1383_4969)"/>
<path d="M45.4141 35.9922H19.5701C19.0223 35.9922 18.5781 36.4363 18.5781 36.9842C18.5781 37.5321 19.0223 37.9762 19.5701 37.9762H45.4141C45.962 37.9762 46.4061 37.5321 46.4061 36.9842C46.4061 36.4363 45.962 35.9922 45.4141 35.9922Z" fill="url(#paint5_linear_1383_4969)"/>
<path d="M35.5541 41.9922H19.5701C19.0223 41.9922 18.5781 42.4363 18.5781 42.9842C18.5781 43.5321 19.0223 43.9762 19.5701 43.9762H35.5541C36.102 43.9762 36.5461 43.5321 36.5461 42.9842C36.5461 42.4363 36.102 41.9922 35.5541 41.9922Z" fill="url(#paint6_linear_1383_4969)" style="mix-blend-mode:luminosity"/>
</g>
<defs>
<filter id="filter0_iiii_1383_4969" x="10.3781" y="3.48594" width="44.644" height="56.6281" filterUnits="userSpaceOnUse" color-interpolation-filters="sRGB">
<feFlood flood-opacity="0" result="BackgroundImageFix"/>
<feBlend mode="normal" in="SourceGraphic" in2="BackgroundImageFix" result="shape"/>
<feColorMatrix in="SourceAlpha" type="matrix" values="0 0 0 0 0 0 0 0 0 0 0 0 0 0 0 0 0 0 127 0" result="hardAlpha"/>
<feOffset dx="0.6" dy="-0.6"/>
<feGaussianBlur stdDeviation="0.6"/>
<feComposite in2="hardAlpha" operator="arithmetic" k2="-1" k3="1"/>
<feColorMatrix type="matrix" values="0 0 0 0 0.807843 0 0 0 0 0.768627 0 0 0 0 0.85098 0 0 0 1 0"/>
<feBlend mode="normal" in2="shape" result="effect1_innerShadow_1383_4969"/>
<feColorMatrix in="SourceAlpha" type="matrix" values="0 0 0 0 0 0 0 0 0 0 0 0 0 0 0 0 0 0 127 0" result="hardAlpha"/>
<feOffset dx="0.2" dy="-0.2"/>
<feGaussianBlur stdDeviation="0.2"/>
<feComposite in2="hardAlpha" operator="arithmetic" k2="-1" k3="1"/>
<feColorMatrix type="matrix" values="0 0 0 0 0.709804 0 0 0 0 0.690196 0 0 0 0 0.733333 0 0 0 1 0"/>
<feBlend mode="normal" in2="effect1_innerShadow_1383_4969" result="effect2_innerShadow_1383_4969"/>
<feColorMatrix in="SourceAlpha" type="matrix" values="0 0 0 0 0 0 0 0 0 0 0 0 0 0 0 0 0 0 127 0" result="hardAlpha"/>
<feOffset dy="-0.2"/>
<feGaussianBlur stdDeviation="0.2"/>
<feComposite in2="hardAlpha" operator="arithmetic" k2="-1" k3="1"/>
<feColorMatrix type="matrix" values="0 0 0 0 0.72549 0 0 0 0 0.65098 0 0 0 0 0.8 0 0 0 1 0"/>
<feBlend mode="normal" in2="effect2_innerShadow_1383_4969" result="effect3_innerShadow_1383_4969"/>
<feColorMatrix in="SourceAlpha" type="matrix" values="0 0 0 0 0 0 0 0 0 0 0 0 0 0 0 0 0 0 127 0" result="hardAlpha"/>
<feOffset dx="-0.3" dy="0.3"/>
<feGaussianBlur stdDeviation="0.1"/>
<feComposite in2="hardAlpha" operator="arithmetic" k2="-1" k3="1"/>
<feColorMatrix type="matrix" values="0 0 0 0 0.952941 0 0 0 0 0.941176 0 0 0 0 0.964706 0 0 0 1 0"/>
<feBlend mode="normal" in2="effect3_innerShadow_1383_4969" result="effect4_innerShadow_1383_4969"/>
</filter>
<filter id="filter1_f_1383_4969" x="38.8984" y="3.20898" width="15.948" height="16.728" filterUnits="userSpaceOnUse" color-interpolation-filters="sRGB">
<feFlood flood-opacity="0" result="BackgroundImageFix"/>
<feBlend mode="normal" in="SourceGraphic" in2="BackgroundImageFix" result="shape"/>
<feGaussianBlur stdDeviation="0.5" result="effect1_foregroundBlur_1383_4969"/>
</filter>
<filter id="filter2_ii_1383_4969" x="40.042" y="3.88984" width="14.5799" height="14.8279" filterUnits="userSpaceOnUse" color-interpolation-filters="sRGB">
<feFlood flood-opacity="0" result="BackgroundImageFix"/>
<feBlend mode="normal" in="SourceGraphic" in2="BackgroundImageFix" result="shape"/>
<feColorMatrix in="SourceAlpha" type="matrix" values="0 0 0 0 0 0 0 0 0 0 0 0 0 0 0 0 0 0 127 0" result="hardAlpha"/>
<feOffset dx="0.2"/>
<feGaussianBlur stdDeviation="0.15"/>
<feComposite in2="hardAlpha" operator="arithmetic" k2="-1" k3="1"/>
<feColorMatrix type="matrix" values="0 0 0 0 0.631373 0 0 0 0 0.611765 0 0 0 0 0.654902 0 0 0 1 0"/>
<feBlend mode="normal" in2="shape" result="effect1_innerShadow_1383_4969"/>
<feColorMatrix in="SourceAlpha" type="matrix" values="0 0 0 0 0 0 0 0 0 0 0 0 0 0 0 0 0 0 127 0" result="hardAlpha"/>
<feOffset dy="-0.2"/>
<feGaussianBlur stdDeviation="0.15"/>
<feComposite in2="hardAlpha" operator="arithmetic" k2="-1" k3="1"/>
<feColorMatrix type="matrix" values="0 0 0 0 0.752941 0 0 0 0 0.67451 0 0 0 0 0.835294 0 0 0 1 0"/>
<feBlend mode="normal" in2="effect1_innerShadow_1383_4969" result="effect2_innerShadow_1383_4969"/>
</filter>
<linearGradient id="paint0_linear_1383_4969" x1="32.5001" y1="4.08594" x2="32.5001" y2="59.9139" gradientUnits="userSpaceOnUse">
<stop stop-color="#EBE4F3"/>
<stop offset="1" stop-color="#E4DAF0"/>
</linearGradient>
<linearGradient id="paint1_linear_1383_4969" x1="41.578" y1="17.4138" x2="46.86" y2="12.1318" gradientUnits="userSpaceOnUse">
<stop stop-color="#D9D3E1"/>
<stop offset="1" stop-color="#CCC7D1"/>
</linearGradient>
<linearGradient id="paint2_linear_1383_4969" x1="48.046" y1="11.1018" x2="46.766" y2="12.3518" gradientUnits="userSpaceOnUse">
<stop offset="0.119" stop-color="#DBDADC"/>
<stop offset="0.577" stop-color="#CBC7D0" stop-opacity="0"/>
</linearGradient>
<linearGradient id="paint3_linear_1383_4969" x1="18.5781" y1="24.9842" x2="46.4061" y2="24.9842" gradientUnits="userSpaceOnUse">
<stop stop-color="#9C96A2"/>
<stop offset="1" stop-color="#9A95A1"/>
</linearGradient>
<linearGradient id="paint4_linear_1383_4969" x1="18.5781" y1="30.9842" x2="46.4061" y2="30.9842" gradientUnits="userSpaceOnUse">
<stop stop-color="#9C96A2"/>
<stop offset="1" stop-color="#9A95A1"/>
</linearGradient>
<linearGradient id="paint5_linear_1383_4969" x1="18.5781" y1="36.9842" x2="46.4061" y2="36.9842" gradientUnits="userSpaceOnUse">
<stop stop-color="#9C96A2"/>
<stop offset="1" stop-color="#9A95A1"/>
</linearGradient>
<linearGradient id="paint6_linear_1383_4969" x1="18.5781" y1="42.9842" x2="36.5461" y2="42.9842" gradientUnits="userSpaceOnUse">
<stop stop-color="#9C96A2"/>
<stop offset="1" stop-color="#9A95A1"/>
</linearGradient>
</defs>
</svg>
