<svg width="20" height="20" viewBox="0 0 20 20" fill="none" xmlns="http://www.w3.org/2000/svg">
<path d="M12.8042 12.2038H12.1722L11.9482 11.9878C12.7322 11.0758 13.2042 9.89181 13.2042 8.60381C13.2042 5.73181 10.8762 3.40381 8.0042 3.40381C5.1322 3.40381 2.8042 5.73181 2.8042 8.60381C2.8042 11.4758 5.1322 13.8038 8.0042 13.8038C9.2922 13.8038 10.4762 13.3318 11.3882 12.5478L11.6042 12.7718V13.4038L15.6042 17.3958L16.7962 16.2038L12.8042 12.2038ZM8.0042 12.2038C6.0122 12.2038 4.4042 10.5958 4.4042 8.60381C4.4042 6.61181 6.0122 5.00381 8.0042 5.00381C9.9962 5.00381 11.6042 6.61181 11.6042 8.60381C11.6042 10.5958 9.9962 12.2038 8.0042 12.2038Z" fill="black" fill-opacity="0.56"/>
</svg>
