<svg width="16" height="16" viewBox="0 0 16 16" fill="none" xmlns="http://www.w3.org/2000/svg">
<path d="M8.00091 14.9632C9.01187 14.9632 9.83141 14.1437 9.83141 13.1327C9.83141 12.1218 9.01187 11.3022 8.00091 11.3022C6.98995 11.3022 6.17041 12.1218 6.17041 13.1327C6.17041 14.1437 6.98995 14.9632 8.00091 14.9632Z" fill="url(#paint0_radial_773_6623)"/>
<path d="M8.00091 14.9632C9.01187 14.9632 9.83141 14.1437 9.83141 13.1327C9.83141 12.1218 9.01187 11.3022 8.00091 11.3022C6.98995 11.3022 6.17041 12.1218 6.17041 13.1327C6.17041 14.1437 6.98995 14.9632 8.00091 14.9632Z" fill="url(#paint1_linear_773_6623)"/>
<path d="M8.00091 14.9632C9.01187 14.9632 9.83141 14.1437 9.83141 13.1327C9.83141 12.1218 9.01187 11.3022 8.00091 11.3022C6.98995 11.3022 6.17041 12.1218 6.17041 13.1327C6.17041 14.1437 6.98995 14.9632 8.00091 14.9632Z" fill="url(#paint2_radial_773_6623)"/>
<g filter="url(#filter0_i_773_6623)">
<path d="M8.60195 1.63179C8.60195 1.29931 8.33242 1.02979 7.99995 1.02979C7.66747 1.02979 7.39795 1.29931 7.39795 1.63179V2.60829C7.39795 2.94076 7.66747 3.21029 7.99995 3.21029C8.33242 3.21029 8.60195 2.94076 8.60195 2.60829V1.63179Z" fill="url(#paint3_radial_773_6623)"/>
</g>
<g filter="url(#filter1_iii_773_6623)">
<path d="M3.98902 5.33662C4.16881 4.43628 4.65285 3.62519 5.3599 3.03951C6.06694 2.45382 6.95395 2.1292 7.87202 2.12012H8.12852C9.0465 2.12931 9.93339 2.45399 10.6403 3.03966C11.3473 3.62534 11.8312 4.43636 12.011 5.33662L12.941 9.99462C13.008 10.3296 13.1596 10.6419 13.3815 10.9016L14.0015 11.6271C14.3106 11.9894 14.4802 12.45 14.48 12.9261V13.5891C14.48 13.6886 14.4405 13.784 14.3702 13.8543C14.2999 13.9246 14.2045 13.9641 14.105 13.9641H1.89502C1.79556 13.9641 1.70018 13.9246 1.62985 13.8543C1.55953 13.784 1.52002 13.6886 1.52002 13.5891V12.9261C1.5198 12.45 1.68947 11.9894 1.99852 11.6271L2.61852 10.9021C2.8403 10.6422 2.99178 10.3297 3.05852 9.99462L3.98902 5.33662Z" fill="url(#paint4_linear_773_6623)"/>
</g>
<path d="M3.98902 5.33662C4.16881 4.43628 4.65285 3.62519 5.3599 3.03951C6.06694 2.45382 6.95395 2.1292 7.87202 2.12012H8.12852C9.0465 2.12931 9.93339 2.45399 10.6403 3.03966C11.3473 3.62534 11.8312 4.43636 12.011 5.33662L12.941 9.99462C13.008 10.3296 13.1596 10.6419 13.3815 10.9016L14.0015 11.6271C14.3106 11.9894 14.4802 12.45 14.48 12.9261V13.5891C14.48 13.6886 14.4405 13.784 14.3702 13.8543C14.2999 13.9246 14.2045 13.9641 14.105 13.9641H1.89502C1.79556 13.9641 1.70018 13.9246 1.62985 13.8543C1.55953 13.784 1.52002 13.6886 1.52002 13.5891V12.9261C1.5198 12.45 1.68947 11.9894 1.99852 11.6271L2.61852 10.9021C2.8403 10.6422 2.99178 10.3297 3.05852 9.99462L3.98902 5.33662Z" fill="url(#paint5_linear_773_6623)"/>
<path d="M3.98902 5.33662C4.16881 4.43628 4.65285 3.62519 5.3599 3.03951C6.06694 2.45382 6.95395 2.1292 7.87202 2.12012H8.12852C9.0465 2.12931 9.93339 2.45399 10.6403 3.03966C11.3473 3.62534 11.8312 4.43636 12.011 5.33662L12.941 9.99462C13.008 10.3296 13.1596 10.6419 13.3815 10.9016L14.0015 11.6271C14.3106 11.9894 14.4802 12.45 14.48 12.9261V13.5891C14.48 13.6886 14.4405 13.784 14.3702 13.8543C14.2999 13.9246 14.2045 13.9641 14.105 13.9641H1.89502C1.79556 13.9641 1.70018 13.9246 1.62985 13.8543C1.55953 13.784 1.52002 13.6886 1.52002 13.5891V12.9261C1.5198 12.45 1.68947 11.9894 1.99852 11.6271L2.61852 10.9021C2.8403 10.6422 2.99178 10.3297 3.05852 9.99462L3.98902 5.33662Z" fill="url(#paint6_radial_773_6623)"/>
<g filter="url(#filter2_f_773_6623)">
<path d="M3.73951 10.6562L2.95801 11.7188H13.458L12.6145 10.6562H3.73951Z" fill="url(#paint7_linear_773_6623)"/>
</g>
<g filter="url(#filter3_f_773_6623)">
<path d="M8.39551 4.663C8.39557 4.3861 8.49712 4.11883 8.68094 3.91175C8.86477 3.70468 9.11811 3.57216 9.39305 3.53927C9.66799 3.50638 9.94545 3.5754 10.1729 3.73328C10.4004 3.89115 10.5621 4.12693 10.6275 4.396L12.1455 10.656H8.39551V4.663Z" fill="url(#paint8_linear_773_6623)"/>
</g>
<defs>
<filter id="filter0_i_773_6623" x="7.39795" y="1.02979" width="1.3041" height="2.18066" filterUnits="userSpaceOnUse" color-interpolation-filters="sRGB">
<feFlood flood-opacity="0" result="BackgroundImageFix"/>
<feBlend mode="normal" in="SourceGraphic" in2="BackgroundImageFix" result="shape"/>
<feColorMatrix in="SourceAlpha" type="matrix" values="0 0 0 0 0 0 0 0 0 0 0 0 0 0 0 0 0 0 127 0" result="hardAlpha"/>
<feOffset dx="0.1"/>
<feGaussianBlur stdDeviation="0.125"/>
<feComposite in2="hardAlpha" operator="arithmetic" k2="-1" k3="1"/>
<feColorMatrix type="matrix" values="0 0 0 0 0.87451 0 0 0 0 0.564706 0 0 0 0 0.341176 0 0 0 1 0"/>
<feBlend mode="normal" in2="shape" result="effect1_innerShadow_773_6623"/>
</filter>
<filter id="filter1_iii_773_6623" x="-0.47998" y="2.12012" width="15.46" height="11.8442" filterUnits="userSpaceOnUse" color-interpolation-filters="sRGB">
<feFlood flood-opacity="0" result="BackgroundImageFix"/>
<feBlend mode="normal" in="SourceGraphic" in2="BackgroundImageFix" result="shape"/>
<feColorMatrix in="SourceAlpha" type="matrix" values="0 0 0 0 0 0 0 0 0 0 0 0 0 0 0 0 0 0 127 0" result="hardAlpha"/>
<feOffset dx="-2"/>
<feGaussianBlur stdDeviation="1"/>
<feComposite in2="hardAlpha" operator="arithmetic" k2="-1" k3="1"/>
<feColorMatrix type="matrix" values="0 0 0 0 1 0 0 0 0 0.905882 0 0 0 0 0.392157 0 0 0 1 0"/>
<feBlend mode="normal" in2="shape" result="effect1_innerShadow_773_6623"/>
<feColorMatrix in="SourceAlpha" type="matrix" values="0 0 0 0 0 0 0 0 0 0 0 0 0 0 0 0 0 0 127 0" result="hardAlpha"/>
<feOffset dx="-0.25"/>
<feGaussianBlur stdDeviation="0.25"/>
<feComposite in2="hardAlpha" operator="arithmetic" k2="-1" k3="1"/>
<feColorMatrix type="matrix" values="0 0 0 0 0.996078 0 0 0 0 0.866667 0 0 0 0 0.462745 0 0 0 1 0"/>
<feBlend mode="normal" in2="effect1_innerShadow_773_6623" result="effect2_innerShadow_773_6623"/>
<feColorMatrix in="SourceAlpha" type="matrix" values="0 0 0 0 0 0 0 0 0 0 0 0 0 0 0 0 0 0 127 0" result="hardAlpha"/>
<feOffset dx="0.5"/>
<feGaussianBlur stdDeviation="0.5"/>
<feComposite in2="hardAlpha" operator="arithmetic" k2="-1" k3="1"/>
<feColorMatrix type="matrix" values="0 0 0 0 0.917647 0 0 0 0 0.572549 0 0 0 0 0.32549 0 0 0 1 0"/>
<feBlend mode="normal" in2="effect2_innerShadow_773_6623" result="effect3_innerShadow_773_6623"/>
</filter>
<filter id="filter2_f_773_6623" x="1.95801" y="9.65625" width="12.5" height="3.0625" filterUnits="userSpaceOnUse" color-interpolation-filters="sRGB">
<feFlood flood-opacity="0" result="BackgroundImageFix"/>
<feBlend mode="normal" in="SourceGraphic" in2="BackgroundImageFix" result="shape"/>
<feGaussianBlur stdDeviation="0.5" result="effect1_foregroundBlur_773_6623"/>
</filter>
<filter id="filter3_f_773_6623" x="7.39551" y="2.53125" width="5.75" height="9.12451" filterUnits="userSpaceOnUse" color-interpolation-filters="sRGB">
<feFlood flood-opacity="0" result="BackgroundImageFix"/>
<feBlend mode="normal" in="SourceGraphic" in2="BackgroundImageFix" result="shape"/>
<feGaussianBlur stdDeviation="0.5" result="effect1_foregroundBlur_773_6623"/>
</filter>
<radialGradient id="paint0_radial_773_6623" cx="0" cy="0" r="1" gradientUnits="userSpaceOnUse" gradientTransform="translate(8.87938 14.7812) rotate(-126.512) scale(1.47748 2.04047)">
<stop stop-color="#FFC26D"/>
<stop offset="1" stop-color="#F68D61"/>
</radialGradient>
<linearGradient id="paint1_linear_773_6623" x1="7.62991" y1="13.5777" x2="7.75491" y2="14.4687" gradientUnits="userSpaceOnUse">
<stop offset="0.186" stop-color="#E57356"/>
<stop offset="1" stop-color="#E57356" stop-opacity="0"/>
</linearGradient>
<radialGradient id="paint2_radial_773_6623" cx="0" cy="0" r="1" gradientUnits="userSpaceOnUse" gradientTransform="translate(8.44241 13.3587) rotate(135) scale(2.03293 3.35453)">
<stop offset="0.441" stop-color="#EA8059" stop-opacity="0"/>
<stop offset="1" stop-color="#C27068"/>
</radialGradient>
<radialGradient id="paint3_radial_773_6623" cx="0" cy="0" r="1" gradientUnits="userSpaceOnUse" gradientTransform="translate(8.39545 2.11979) rotate(-90) scale(1.09033 0.65625)">
<stop stop-color="#FFE957"/>
<stop offset="1" stop-color="#F7A630"/>
</radialGradient>
<linearGradient id="paint4_linear_773_6623" x1="9.23352" y1="13.0461" x2="2.47302" y2="13.0461" gradientUnits="userSpaceOnUse">
<stop stop-color="#FCB949"/>
<stop offset="1" stop-color="#E28C37"/>
</linearGradient>
<linearGradient id="paint5_linear_773_6623" x1="9.05202" y1="14.0936" x2="9.05202" y2="12.5936" gradientUnits="userSpaceOnUse">
<stop stop-color="#D7737D"/>
<stop offset="0.302" stop-color="#FCA162" stop-opacity="0"/>
</linearGradient>
<radialGradient id="paint6_radial_773_6623" cx="0" cy="0" r="1" gradientUnits="userSpaceOnUse" gradientTransform="translate(11.0205 7.31212) rotate(146.139) scale(11.4415 10.9759)">
<stop offset="0.67" stop-color="#E69136" stop-opacity="0"/>
<stop offset="0.977" stop-color="#CF7D44"/>
</radialGradient>
<linearGradient id="paint7_linear_773_6623" x1="3.11451" y1="11.7188" x2="13.1455" y2="11.7188" gradientUnits="userSpaceOnUse">
<stop offset="0.277" stop-color="#F5A43C"/>
<stop offset="1" stop-color="#FFE154"/>
</linearGradient>
<linearGradient id="paint8_linear_773_6623" x1="12.587" y1="9.286" x2="7.77051" y2="9.286" gradientUnits="userSpaceOnUse">
<stop offset="0.118" stop-color="#FFEF6D"/>
<stop offset="1" stop-color="#FFEF6D" stop-opacity="0"/>
</linearGradient>
</defs>
</svg>
