<svg width="33" height="33" viewBox="0 0 33 33" fill="none" xmlns="http://www.w3.org/2000/svg">
<g style="mix-blend-mode:luminosity">
<path d="M15.85 2.64348C16.17 2.45348 16.56 2.45348 16.87 2.64348L27.79 9.28348C28.05 9.44348 28.21 9.73348 28.21 10.0335L16.36 18.0005L4.5 10.1325V10.0325C4.5 9.73248 4.66 9.44248 4.92 9.29248L15.85 2.64348Z" fill="#C7C8CA"/>
<path d="M16.356 16.7461L27.716 9.8461C27.7658 9.81639 27.8226 9.80042 27.8806 9.79982C27.9386 9.79922 27.9957 9.814 28.0461 9.84267C28.0965 9.87133 28.1384 9.91285 28.1676 9.96299C28.1967 10.0131 28.2121 10.0701 28.212 10.1281V22.4681C28.2124 22.7653 28.1363 23.0576 27.9909 23.3168C27.8455 23.5761 27.6358 23.7935 27.382 23.9481L16.742 30.4081C16.7147 30.4225 16.6854 30.4326 16.655 30.4381C16.628 30.4456 16.6 30.4493 16.572 30.4491C16.3426 30.5127 16.0974 30.4829 15.89 30.3661H15.896L13.5 19.5001L16.356 16.7461Z" fill="#D3D4D6"/>
<path d="M16.36 30.1224V16.7524L5.01 9.85238C4.95989 9.82016 4.90201 9.80207 4.84247 9.8C4.78292 9.79794 4.72393 9.81198 4.6717 9.84066C4.61948 9.86933 4.57596 9.91157 4.54574 9.96291C4.51552 10.0143 4.49972 10.0728 4.5 10.1324V22.4724C4.5 23.0824 4.82 23.6424 5.33 23.9524L15.9 30.3724C15.9451 30.4008 15.997 30.4167 16.0503 30.4185C16.1036 30.4202 16.1564 30.4077 16.2033 30.3822C16.2501 30.3567 16.2894 30.3192 16.3169 30.2736C16.3445 30.2279 16.3593 30.1757 16.36 30.1224Z" fill="#A3A4A6"/>
<path d="M15 27.2821V25.3221C15 25.0921 14.88 24.8821 14.69 24.7621L11.89 23.0721C11.7 22.9621 11.46 23.0921 11.46 23.3121V25.2721C11.46 25.5021 11.58 25.7121 11.77 25.8321L14.57 27.5221C14.76 27.6321 15 27.5021 15 27.2821Z" fill="#D2D3D5"/>
<path d="M12.26 17.0534V12.4934L8.97998 12.2734V15.4334C8.97998 15.5334 9.02998 15.6334 9.11998 15.6934L11.8 17.3234C12 17.4334 12.26 17.2934 12.26 17.0534Z" fill="#636466"/>
<path d="M20.84 5.06348L8.97998 12.2735L12.26 14.2735L24.12 7.07348L20.84 5.06348Z" fill="#78797B"/>
</g>
</svg>
