<svg width="24" height="25" viewBox="0 0 24 25" fill="none" xmlns="http://www.w3.org/2000/svg">
<g id="Social Login">
<path id="Vector" d="M23.7703 10.1861H22.8186V10.1371H12.1851V14.8631H18.8624C17.8882 17.6142 15.2706 19.5891 12.1851 19.5891C8.27022 19.5891 5.09612 16.415 5.09612 12.5001C5.09612 8.58516 8.27022 5.41106 12.1851 5.41106C13.9922 5.41106 15.6363 6.09278 16.8881 7.20635L20.23 3.86447C18.1198 1.89787 15.2972 0.685059 12.1851 0.685059C5.66028 0.685059 0.370117 5.97522 0.370117 12.5001C0.370117 19.0249 5.66028 24.3151 12.1851 24.3151C18.71 24.3151 24.0001 19.0249 24.0001 12.5001C24.0001 11.7079 23.9186 10.9346 23.7703 10.1861Z" fill="#FFC107"/>
<path id="Vector_2" d="M1.73242 7.00077L5.61424 9.84759C6.66459 7.24711 9.20836 5.41106 12.1852 5.41106C13.9923 5.41106 15.6363 6.09278 16.8881 7.20635L20.23 3.86448C18.1198 1.89787 15.2972 0.685059 12.1852 0.685059C7.64701 0.685059 3.71143 3.24714 1.73242 7.00077Z" fill="#FF3D00"/>
<path id="Vector_3" d="M12.1848 24.3151C15.2366 24.3151 18.0096 23.1472 20.1062 21.2479L16.4494 18.1536C15.2632 19.0521 13.7887 19.5891 12.1848 19.5891C9.11173 19.5891 6.50238 17.6296 5.51938 14.895L1.6665 17.8635C3.62189 21.6898 7.59291 24.3151 12.1848 24.3151Z" fill="#4CAF50"/>
<path id="Vector_4" d="M23.7703 10.1862H22.8186V10.1372H12.1851V14.8632H18.8623C18.3944 16.1847 17.5443 17.3243 16.4479 18.1543C16.4485 18.1537 16.4491 18.1537 16.4497 18.1531L20.1064 21.2474C19.8477 21.4826 24.0001 18.4077 24.0001 12.5002C24.0001 11.708 23.9185 10.9347 23.7703 10.1862Z" fill="#1976D2"/>
</g>
</svg>
