<svg width="24" height="24" viewBox="0 0 24 24" fill="none" xmlns="http://www.w3.org/2000/svg">
<rect width="24" height="24" rx="5" fill="#F2F1F1"/>
<g filter="url(#filter0_iiii_1382_9475)">
<path d="M14.2075 5.16798C14.1138 5.07421 13.9866 5.02151 13.854 5.02148H7.21953C7.03388 5.02148 6.85583 5.09523 6.72456 5.22651C6.59328 5.35779 6.51953 5.53583 6.51953 5.72148V18.2785C6.51953 18.4641 6.59328 18.6422 6.72456 18.7735C6.85583 18.9047 7.03388 18.9785 7.21953 18.9785H16.7805C16.9662 18.9785 17.1442 18.9047 17.2755 18.7735C17.4068 18.6422 17.4805 18.4641 17.4805 18.2785V8.64848C17.4806 8.58274 17.4677 8.51764 17.4425 8.4569C17.4174 8.39615 17.3805 8.34096 17.334 8.29448L14.2075 5.16798Z" fill="url(#paint0_linear_1382_9475)"/>
</g>
<g filter="url(#filter1_f_1382_9475)">
<path d="M13.8756 5.22825C13.8756 5.12775 13.9046 5.06325 13.8496 5.05225C13.9016 5.05575 13.9776 5.07475 14.0256 5.09375C14.0871 5.11775 14.0106 5.17125 14.0591 5.21825L14.0636 5.22225L17.1901 8.34875C17.2366 8.39522 17.2735 8.45041 17.2986 8.51116C17.3237 8.5719 17.3367 8.63701 17.3366 8.70275V8.73425C17.3366 8.61825 17.2526 8.54875 17.1901 8.54875H14.4756C14.3165 8.54875 14.1639 8.48553 14.0513 8.37301C13.9388 8.26049 13.8756 8.10788 13.8756 7.94875V5.22825Z" fill="#D2C5DF"/>
</g>
<g filter="url(#filter2_ii_1382_9475)">
<path d="M14.02 5.17396C14.02 5.07296 13.9405 5.03296 13.8855 5.02246C14.0069 5.03002 14.1214 5.08157 14.2075 5.16746L17.334 8.29446C17.3899 8.35053 17.4317 8.41907 17.456 8.49446C17.4721 8.54404 17.4804 8.59583 17.4805 8.64796V8.67946C17.4805 8.56346 17.3965 8.49446 17.334 8.49446H14.6195C14.5407 8.49446 14.4627 8.47894 14.3899 8.44879C14.3171 8.41864 14.2509 8.37444 14.1952 8.31873C14.1395 8.26301 14.0953 8.19687 14.0652 8.12407C14.035 8.05128 14.0195 7.97325 14.0195 7.89446L14.02 5.17396Z" fill="url(#paint1_linear_1382_9475)"/>
</g>
<path d="M14.02 5.17396C14.02 5.07296 13.9405 5.03296 13.8855 5.02246C14.0069 5.03002 14.1214 5.08157 14.2075 5.16746L17.334 8.29446C17.3899 8.35053 17.4317 8.41907 17.456 8.49446C17.4721 8.54404 17.4804 8.59583 17.4805 8.64796V8.67946C17.4805 8.56346 17.3965 8.49446 17.334 8.49446H14.6195C14.5407 8.49446 14.4627 8.47894 14.3899 8.44879C14.3171 8.41864 14.2509 8.37444 14.1952 8.31873C14.1395 8.26301 14.0953 8.19687 14.0652 8.12407C14.035 8.05128 14.0195 7.97325 14.0195 7.89446L14.02 5.17396Z" fill="url(#paint2_linear_1382_9475)"/>
<path d="M15.2285 9.99805H8.76753C8.63056 9.99805 8.51953 10.1091 8.51953 10.246C8.51953 10.383 8.63056 10.494 8.76753 10.494H15.2285C15.3655 10.494 15.4765 10.383 15.4765 10.246C15.4765 10.1091 15.3655 9.99805 15.2285 9.99805Z" fill="url(#paint3_linear_1382_9475)"/>
<path d="M15.2285 11.498H8.76753C8.63056 11.498 8.51953 11.6091 8.51953 11.746C8.51953 11.883 8.63056 11.994 8.76753 11.994H15.2285C15.3655 11.994 15.4765 11.883 15.4765 11.746C15.4765 11.6091 15.3655 11.498 15.2285 11.498Z" fill="url(#paint4_linear_1382_9475)"/>
<path d="M15.2285 12.998H8.76753C8.63056 12.998 8.51953 13.1091 8.51953 13.246C8.51953 13.383 8.63056 13.494 8.76753 13.494H15.2285C15.3655 13.494 15.4765 13.383 15.4765 13.246C15.4765 13.1091 15.3655 12.998 15.2285 12.998Z" fill="url(#paint5_linear_1382_9475)"/>
<path d="M12.7635 14.498H8.76753C8.63056 14.498 8.51953 14.6091 8.51953 14.746C8.51953 14.883 8.63056 14.994 8.76753 14.994H12.7635C12.9005 14.994 13.0115 14.883 13.0115 14.746C13.0115 14.6091 12.9005 14.498 12.7635 14.498Z" fill="url(#paint6_linear_1382_9475)"/>
<path d="M16.5365 10.7493C16.6903 10.6231 16.8879 10.5632 17.0858 10.5827C17.2838 10.6022 17.4658 10.6996 17.592 10.8533L18.567 12.0423C18.6931 12.196 18.753 12.3934 18.7336 12.5912C18.7142 12.789 18.6171 12.9711 18.4635 13.0973L11.3945 18.8973L9.46753 16.5483L16.5365 10.7493Z" fill="url(#paint7_radial_1382_9475)"/>
<path d="M16.5365 10.7493C16.6903 10.6231 16.8879 10.5632 17.0858 10.5827C17.2838 10.6022 17.4658 10.6996 17.592 10.8533L18.567 12.0423C18.6931 12.196 18.753 12.3934 18.7336 12.5912C18.7142 12.789 18.6171 12.9711 18.4635 13.0973L11.3945 18.8973L9.46753 16.5483L16.5365 10.7493Z" fill="url(#paint8_linear_1382_9475)"/>
<path d="M16.5365 10.7493C16.6903 10.6231 16.8879 10.5632 17.0858 10.5827C17.2838 10.6022 17.4658 10.6996 17.592 10.8533L18.567 12.0423C18.6931 12.196 18.753 12.3934 18.7336 12.5912C18.7142 12.789 18.6171 12.9711 18.4635 13.0973L11.3945 18.8973L9.46753 16.5483L16.5365 10.7493Z" fill="url(#paint9_linear_1382_9475)"/>
<path d="M16.5365 10.7493C16.6903 10.6231 16.8879 10.5632 17.0858 10.5827C17.2838 10.6022 17.4658 10.6996 17.592 10.8533L18.567 12.0423C18.6931 12.196 18.753 12.3934 18.7336 12.5912C18.7142 12.789 18.6171 12.9711 18.4635 13.0973L11.3945 18.8973L9.46753 16.5483L16.5365 10.7493Z" fill="url(#paint10_radial_1382_9475)"/>
<path d="M8.9215 18.8974C8.91975 18.9069 8.92011 18.9167 8.92256 18.9261C8.92501 18.9355 8.92949 18.9443 8.93569 18.9518C8.94189 18.9592 8.94965 18.9653 8.95842 18.9694C8.9672 18.9736 8.97679 18.9758 8.9865 18.9759L11.163 18.9814C11.2256 18.9816 11.287 18.9641 11.34 18.9309L11.3945 18.8969L9.4675 16.5479L9.4305 16.5849C9.38348 16.6315 9.35159 16.6913 9.339 16.7564L8.9215 18.8974Z" fill="url(#paint11_linear_1382_9475)"/>
<path d="M8.9215 18.8974C8.91975 18.9069 8.92011 18.9167 8.92256 18.9261C8.92501 18.9355 8.92949 18.9443 8.93569 18.9518C8.94189 18.9592 8.94965 18.9653 8.95842 18.9694C8.9672 18.9736 8.97679 18.9758 8.9865 18.9759L11.163 18.9814C11.2256 18.9816 11.287 18.9641 11.34 18.9309L11.3945 18.8969L9.4675 16.5479L9.4305 16.5849C9.38348 16.6315 9.35159 16.6913 9.339 16.7564L8.9215 18.8974Z" fill="url(#paint12_linear_1382_9475)"/>
<path d="M8.9215 18.8974C8.91975 18.9069 8.92011 18.9167 8.92256 18.9261C8.92501 18.9355 8.92949 18.9443 8.93569 18.9518C8.94189 18.9592 8.94965 18.9653 8.95842 18.9694C8.9672 18.9736 8.97679 18.9758 8.9865 18.9759L11.163 18.9814C11.2256 18.9816 11.287 18.9641 11.34 18.9309L11.3945 18.8969L9.4675 16.5479L9.4305 16.5849C9.38348 16.6315 9.35159 16.6913 9.339 16.7564L8.9215 18.8974Z" fill="url(#paint13_linear_1382_9475)"/>
<path d="M17.5066 13.8826L18.6591 12.9376C18.7096 12.8962 18.7515 12.8452 18.7823 12.7876C18.8131 12.73 18.8323 12.6669 18.8387 12.6019C18.8451 12.5369 18.8386 12.4713 18.8197 12.4088C18.8007 12.3462 18.7696 12.2881 18.7281 12.2376L17.4316 10.6576C17.348 10.5558 17.2274 10.4914 17.0964 10.4785C16.9653 10.4655 16.8345 10.5052 16.7326 10.5886L15.5801 11.5341L17.5066 13.8826Z" fill="url(#paint14_linear_1382_9475)"/>
<path d="M17.5066 13.8826L18.6591 12.9376C18.7096 12.8962 18.7515 12.8452 18.7823 12.7876C18.8131 12.73 18.8323 12.6669 18.8387 12.6019C18.8451 12.5369 18.8386 12.4713 18.8197 12.4088C18.8007 12.3462 18.7696 12.2881 18.7281 12.2376L17.4316 10.6576C17.348 10.5558 17.2274 10.4914 17.0964 10.4785C16.9653 10.4655 16.8345 10.5052 16.7326 10.5886L15.5801 11.5341L17.5066 13.8826Z" fill="url(#paint15_linear_1382_9475)"/>
<path d="M17.5066 13.8826L18.6591 12.9376C18.7096 12.8962 18.7515 12.8452 18.7823 12.7876C18.8131 12.73 18.8323 12.6669 18.8387 12.6019C18.8451 12.5369 18.8386 12.4713 18.8197 12.4088C18.8007 12.3462 18.7696 12.2881 18.7281 12.2376L17.4316 10.6576C17.348 10.5558 17.2274 10.4914 17.0964 10.4785C16.9653 10.4655 16.8345 10.5052 16.7326 10.5886L15.5801 11.5341L17.5066 13.8826Z" fill="url(#paint16_radial_1382_9475)"/>
<path d="M14.425 12.4817L15.58 11.5342L17.5065 13.8827L16.3515 14.8302L14.425 12.4817Z" fill="url(#paint17_linear_1382_9475)"/>
<path d="M14.425 12.4817L15.58 11.5342L17.5065 13.8827L16.3515 14.8302L14.425 12.4817Z" fill="url(#paint18_linear_1382_9475)"/>
<path d="M8.98611 18.976C8.97634 18.9759 8.96671 18.9737 8.95789 18.9696C8.94906 18.9654 8.94127 18.9593 8.93507 18.9517C8.92886 18.9442 8.9244 18.9354 8.92198 18.9259C8.91957 18.9165 8.91927 18.9066 8.92111 18.897L9.06811 18.1465L9.75011 18.978L8.98611 18.976Z" fill="url(#paint19_linear_1382_9475)"/>
<defs>
<filter id="filter0_iiii_1382_9475" x="6.46953" y="4.87148" width="11.1611" height="14.157" filterUnits="userSpaceOnUse" color-interpolation-filters="sRGB">
<feFlood flood-opacity="0" result="BackgroundImageFix"/>
<feBlend mode="normal" in="SourceGraphic" in2="BackgroundImageFix" result="shape"/>
<feColorMatrix in="SourceAlpha" type="matrix" values="0 0 0 0 0 0 0 0 0 0 0 0 0 0 0 0 0 0 127 0" result="hardAlpha"/>
<feOffset dx="0.15" dy="-0.15"/>
<feGaussianBlur stdDeviation="0.15"/>
<feComposite in2="hardAlpha" operator="arithmetic" k2="-1" k3="1"/>
<feColorMatrix type="matrix" values="0 0 0 0 0.807843 0 0 0 0 0.768627 0 0 0 0 0.85098 0 0 0 1 0"/>
<feBlend mode="normal" in2="shape" result="effect1_innerShadow_1382_9475"/>
<feColorMatrix in="SourceAlpha" type="matrix" values="0 0 0 0 0 0 0 0 0 0 0 0 0 0 0 0 0 0 127 0" result="hardAlpha"/>
<feOffset dx="0.05" dy="-0.05"/>
<feGaussianBlur stdDeviation="0.05"/>
<feComposite in2="hardAlpha" operator="arithmetic" k2="-1" k3="1"/>
<feColorMatrix type="matrix" values="0 0 0 0 0.709804 0 0 0 0 0.690196 0 0 0 0 0.733333 0 0 0 1 0"/>
<feBlend mode="normal" in2="effect1_innerShadow_1382_9475" result="effect2_innerShadow_1382_9475"/>
<feColorMatrix in="SourceAlpha" type="matrix" values="0 0 0 0 0 0 0 0 0 0 0 0 0 0 0 0 0 0 127 0" result="hardAlpha"/>
<feOffset dy="-0.05"/>
<feGaussianBlur stdDeviation="0.05"/>
<feComposite in2="hardAlpha" operator="arithmetic" k2="-1" k3="1"/>
<feColorMatrix type="matrix" values="0 0 0 0 0.72549 0 0 0 0 0.65098 0 0 0 0 0.8 0 0 0 1 0"/>
<feBlend mode="normal" in2="effect2_innerShadow_1382_9475" result="effect3_innerShadow_1382_9475"/>
<feColorMatrix in="SourceAlpha" type="matrix" values="0 0 0 0 0 0 0 0 0 0 0 0 0 0 0 0 0 0 127 0" result="hardAlpha"/>
<feOffset dx="-0.075" dy="0.075"/>
<feGaussianBlur stdDeviation="0.025"/>
<feComposite in2="hardAlpha" operator="arithmetic" k2="-1" k3="1"/>
<feColorMatrix type="matrix" values="0 0 0 0 0.952941 0 0 0 0 0.941176 0 0 0 0 0.964706 0 0 0 1 0"/>
<feBlend mode="normal" in2="effect3_innerShadow_1382_9475" result="effect4_innerShadow_1382_9475"/>
</filter>
<filter id="filter1_f_1382_9475" x="13.5996" y="4.80225" width="3.98706" height="4.18213" filterUnits="userSpaceOnUse" color-interpolation-filters="sRGB">
<feFlood flood-opacity="0" result="BackgroundImageFix"/>
<feBlend mode="normal" in="SourceGraphic" in2="BackgroundImageFix" result="shape"/>
<feGaussianBlur stdDeviation="0.125" result="effect1_foregroundBlur_1382_9475"/>
</filter>
<filter id="filter2_ii_1382_9475" x="13.8855" y="4.97246" width="3.64497" height="3.70723" filterUnits="userSpaceOnUse" color-interpolation-filters="sRGB">
<feFlood flood-opacity="0" result="BackgroundImageFix"/>
<feBlend mode="normal" in="SourceGraphic" in2="BackgroundImageFix" result="shape"/>
<feColorMatrix in="SourceAlpha" type="matrix" values="0 0 0 0 0 0 0 0 0 0 0 0 0 0 0 0 0 0 127 0" result="hardAlpha"/>
<feOffset dx="0.05"/>
<feGaussianBlur stdDeviation="0.0375"/>
<feComposite in2="hardAlpha" operator="arithmetic" k2="-1" k3="1"/>
<feColorMatrix type="matrix" values="0 0 0 0 0.631373 0 0 0 0 0.611765 0 0 0 0 0.654902 0 0 0 1 0"/>
<feBlend mode="normal" in2="shape" result="effect1_innerShadow_1382_9475"/>
<feColorMatrix in="SourceAlpha" type="matrix" values="0 0 0 0 0 0 0 0 0 0 0 0 0 0 0 0 0 0 127 0" result="hardAlpha"/>
<feOffset dy="-0.05"/>
<feGaussianBlur stdDeviation="0.0375"/>
<feComposite in2="hardAlpha" operator="arithmetic" k2="-1" k3="1"/>
<feColorMatrix type="matrix" values="0 0 0 0 0.752941 0 0 0 0 0.67451 0 0 0 0 0.835294 0 0 0 1 0"/>
<feBlend mode="normal" in2="effect1_innerShadow_1382_9475" result="effect2_innerShadow_1382_9475"/>
</filter>
<linearGradient id="paint0_linear_1382_9475" x1="12" y1="5.02148" x2="12" y2="19.4415" gradientUnits="userSpaceOnUse">
<stop stop-color="#E4DCEA"/>
<stop offset="1" stop-color="#CEC1D5"/>
</linearGradient>
<linearGradient id="paint1_linear_1382_9475" x1="14.2695" y1="8.35346" x2="15.59" y2="7.03296" gradientUnits="userSpaceOnUse">
<stop stop-color="#CAC2CE"/>
<stop offset="1" stop-color="#BDB4C1"/>
</linearGradient>
<linearGradient id="paint2_linear_1382_9475" x1="15.8865" y1="6.77546" x2="15.258" y2="7.40996" gradientUnits="userSpaceOnUse">
<stop offset="0.119" stop-color="#DBDADC"/>
<stop offset="0.577" stop-color="#CBC7D0" stop-opacity="0"/>
</linearGradient>
<linearGradient id="paint3_linear_1382_9475" x1="8.51953" y1="10.246" x2="15.4765" y2="10.246" gradientUnits="userSpaceOnUse">
<stop stop-color="#9C96A2"/>
<stop offset="1" stop-color="#9A95A1"/>
</linearGradient>
<linearGradient id="paint4_linear_1382_9475" x1="8.51953" y1="11.746" x2="15.4765" y2="11.746" gradientUnits="userSpaceOnUse">
<stop stop-color="#9C96A2"/>
<stop offset="1" stop-color="#9A95A1"/>
</linearGradient>
<linearGradient id="paint5_linear_1382_9475" x1="8.51953" y1="13.246" x2="15.4765" y2="13.246" gradientUnits="userSpaceOnUse">
<stop stop-color="#9C96A2"/>
<stop offset="1" stop-color="#9A95A1"/>
</linearGradient>
<linearGradient id="paint6_linear_1382_9475" x1="8.51953" y1="14.746" x2="13.0115" y2="14.746" gradientUnits="userSpaceOnUse">
<stop stop-color="#9C96A2"/>
<stop offset="1" stop-color="#9A95A1"/>
</linearGradient>
<radialGradient id="paint7_radial_1382_9475" cx="0" cy="0" r="1" gradientUnits="userSpaceOnUse" gradientTransform="translate(10.4175 17.7858) rotate(-40.0074) scale(6.5151 4.0413)">
<stop stop-color="#FF9130"/>
<stop offset="1" stop-color="#F3633D"/>
</radialGradient>
<linearGradient id="paint8_linear_1382_9475" x1="12.077" y1="14.2463" x2="12.5435" y2="14.7918" gradientUnits="userSpaceOnUse">
<stop stop-color="#EE9B6A"/>
<stop offset="1" stop-color="#EE9B6A" stop-opacity="0"/>
</linearGradient>
<linearGradient id="paint9_linear_1382_9475" x1="15.4205" y1="15.7828" x2="14.8535" y2="15.2068" gradientUnits="userSpaceOnUse">
<stop stop-color="#E66A62"/>
<stop offset="1" stop-color="#E66A62" stop-opacity="0"/>
</linearGradient>
<radialGradient id="paint10_radial_1382_9475" cx="0" cy="0" r="1" gradientUnits="userSpaceOnUse" gradientTransform="translate(10.341 17.7158) rotate(-39.2242) scale(6.01695 1.3455)">
<stop stop-color="#FF994D"/>
<stop offset="1" stop-color="#FF994D" stop-opacity="0"/>
</radialGradient>
<linearGradient id="paint11_linear_1382_9475" x1="9.652" y1="17.7414" x2="10.383" y2="19.1864" gradientUnits="userSpaceOnUse">
<stop stop-color="#D8A587"/>
<stop offset="1" stop-color="#CE7A98"/>
</linearGradient>
<linearGradient id="paint12_linear_1382_9475" x1="10.6655" y1="17.9044" x2="10.476" y2="18.0619" gradientUnits="userSpaceOnUse">
<stop offset="0.207" stop-color="#FFC09F"/>
<stop offset="1" stop-color="#FCB196" stop-opacity="0"/>
</linearGradient>
<linearGradient id="paint13_linear_1382_9475" x1="8.874" y1="17.6129" x2="9.5685" y2="17.7434" gradientUnits="userSpaceOnUse">
<stop stop-color="#DEBCA3"/>
<stop offset="1" stop-color="#DEBCA3" stop-opacity="0"/>
</linearGradient>
<linearGradient id="paint14_linear_1382_9475" x1="18.3141" y1="11.5541" x2="16.8216" y2="12.7591" gradientUnits="userSpaceOnUse">
<stop stop-color="#FF6153"/>
<stop offset="1" stop-color="#FF6154"/>
</linearGradient>
<linearGradient id="paint15_linear_1382_9475" x1="15.9156" y1="11.1926" x2="16.8891" y2="12.2876" gradientUnits="userSpaceOnUse">
<stop stop-color="#F1553E"/>
<stop offset="1" stop-color="#F1553E" stop-opacity="0"/>
</linearGradient>
<radialGradient id="paint16_radial_1382_9475" cx="0" cy="0" r="1" gradientUnits="userSpaceOnUse" gradientTransform="translate(18.0051 11.8356) rotate(140.636) scale(0.45383 1.03097)">
<stop offset="0.177" stop-color="#FF786D"/>
<stop offset="1" stop-color="#FF786D" stop-opacity="0"/>
</radialGradient>
<linearGradient id="paint17_linear_1382_9475" x1="15.0205" y1="12.0407" x2="16.258" y2="13.4112" gradientUnits="userSpaceOnUse">
<stop stop-color="#C5C4CB"/>
<stop offset="1" stop-color="#E8DEFA"/>
</linearGradient>
<linearGradient id="paint18_linear_1382_9475" x1="16.9355" y1="14.5597" x2="16.246" y2="13.7427" gradientUnits="userSpaceOnUse">
<stop stop-color="#C9B9E0"/>
<stop offset="1" stop-color="#C9B9E0" stop-opacity="0"/>
</linearGradient>
<linearGradient id="paint19_linear_1382_9475" x1="9.02661" y1="18.491" x2="9.32861" y2="19.0105" gradientUnits="userSpaceOnUse">
<stop stop-color="#461E49"/>
<stop offset="1" stop-color="#450F51"/>
</linearGradient>
</defs>
</svg>
