<svg width="24" height="24" viewBox="0 0 24 24" fill="none" xmlns="http://www.w3.org/2000/svg">
<rect width="24" height="24" rx="5" fill="#F2F1F1"/>
<mask id="mask0_1897_5069" style="mask-type:luminance" maskUnits="userSpaceOnUse" x="4" y="4" width="16" height="16">
<path d="M4 4H20V20H4V4Z" fill="white"/>
</mask>
<g mask="url(#mask0_1897_5069)">
<g filter="url(#filter0_i_1897_5069)">
<path d="M18.052 6.22241C17.6898 5.8601 17.2598 5.57269 16.7865 5.3766C16.3133 5.18052 15.806 5.07959 15.2937 5.07959C14.7814 5.07959 14.2742 5.18052 13.8009 5.3766C13.3276 5.57269 12.8976 5.8601 12.5355 6.22241L10.505 8.25341C10.1636 8.59417 9.88849 8.99529 9.69347 9.43641C10.3921 9.11481 11.1702 9.00696 11.93 9.12641L13.685 7.37141C13.8963 7.16008 14.1471 6.99243 14.4232 6.87805C14.6993 6.76367 14.9952 6.70478 15.294 6.70476C15.5929 6.70474 15.8888 6.76358 16.1649 6.87792C16.441 6.99226 16.6919 7.15986 16.9032 7.37116C17.1145 7.58245 17.2822 7.83331 17.3966 8.10939C17.511 8.38548 17.5698 8.68139 17.5699 8.98023C17.5699 9.27907 17.5111 9.57499 17.3967 9.8511C17.2824 10.1272 17.1148 10.3781 16.9035 10.5894L14.872 12.6209C14.5366 12.9565 14.1047 13.1788 13.6367 13.2568C13.1687 13.3348 12.688 13.2646 12.2619 13.0559C11.8358 12.8473 11.4855 12.5107 11.2602 12.0931C11.0348 11.6756 10.9456 11.1981 11.005 10.7274C10.5168 10.7961 10.0644 11.0222 9.71647 11.3714L9.41797 11.6699C9.53859 12.3749 9.85076 13.0332 10.3203 13.5728C10.7899 14.1123 11.3988 14.5124 12.0804 14.7292C12.7621 14.946 13.4902 14.9711 14.1852 14.802C14.8802 14.6328 15.5152 14.2757 16.021 13.7699L18.0525 11.7384C18.4147 11.3762 18.702 10.9463 18.8981 10.4731C19.0941 9.99984 19.195 9.49263 19.195 8.98041C19.195 8.46818 19.0941 7.96098 18.8981 7.48776C18.702 7.01453 18.4142 6.58457 18.052 6.22241Z" fill="#C8BDCD"/>
</g>
<path d="M18.052 6.22241C17.6898 5.8601 17.2598 5.57269 16.7865 5.3766C16.3133 5.18052 15.806 5.07959 15.2937 5.07959C14.7814 5.07959 14.2742 5.18052 13.8009 5.3766C13.3276 5.57269 12.8976 5.8601 12.5355 6.22241L10.505 8.25341C10.1636 8.59417 9.88849 8.99529 9.69347 9.43641C10.3921 9.11481 11.1702 9.00696 11.93 9.12641L13.685 7.37141C13.8963 7.16008 14.1471 6.99243 14.4232 6.87805C14.6993 6.76367 14.9952 6.70478 15.294 6.70476C15.5929 6.70474 15.8888 6.76358 16.1649 6.87792C16.441 6.99226 16.6919 7.15986 16.9032 7.37116C17.1145 7.58245 17.2822 7.83331 17.3966 8.10939C17.511 8.38548 17.5698 8.68139 17.5699 8.98023C17.5699 9.27907 17.5111 9.57499 17.3967 9.8511C17.2824 10.1272 17.1148 10.3781 16.9035 10.5894L14.872 12.6209C14.5366 12.9565 14.1047 13.1788 13.6367 13.2568C13.1687 13.3348 12.688 13.2646 12.2619 13.0559C11.8358 12.8473 11.4855 12.5107 11.2602 12.0931C11.0348 11.6756 10.9456 11.1981 11.005 10.7274C10.5168 10.7961 10.0644 11.0222 9.71647 11.3714L9.41797 11.6699C9.53859 12.3749 9.85076 13.0332 10.3203 13.5728C10.7899 14.1123 11.3988 14.5124 12.0804 14.7292C12.7621 14.946 13.4902 14.9711 14.1852 14.802C14.8802 14.6328 15.5152 14.2757 16.021 13.7699L18.0525 11.7384C18.4147 11.3762 18.702 10.9463 18.8981 10.4731C19.0941 9.99984 19.195 9.49263 19.195 8.98041C19.195 8.46818 19.0941 7.96098 18.8981 7.48776C18.702 7.01453 18.4142 6.58457 18.052 6.22241Z" fill="url(#paint0_radial_1897_5069)"/>
<path d="M18.052 6.22241C17.6898 5.8601 17.2598 5.57269 16.7865 5.3766C16.3133 5.18052 15.806 5.07959 15.2937 5.07959C14.7814 5.07959 14.2742 5.18052 13.8009 5.3766C13.3276 5.57269 12.8976 5.8601 12.5355 6.22241L10.505 8.25341C10.1636 8.59417 9.88849 8.99529 9.69347 9.43641C10.3921 9.11481 11.1702 9.00696 11.93 9.12641L13.685 7.37141C13.8963 7.16008 14.1471 6.99243 14.4232 6.87805C14.6993 6.76367 14.9952 6.70478 15.294 6.70476C15.5929 6.70474 15.8888 6.76358 16.1649 6.87792C16.441 6.99226 16.6919 7.15986 16.9032 7.37116C17.1145 7.58245 17.2822 7.83331 17.3966 8.10939C17.511 8.38548 17.5698 8.68139 17.5699 8.98023C17.5699 9.27907 17.5111 9.57499 17.3967 9.8511C17.2824 10.1272 17.1148 10.3781 16.9035 10.5894L14.872 12.6209C14.5366 12.9565 14.1047 13.1788 13.6367 13.2568C13.1687 13.3348 12.688 13.2646 12.2619 13.0559C11.8358 12.8473 11.4855 12.5107 11.2602 12.0931C11.0348 11.6756 10.9456 11.1981 11.005 10.7274C10.5168 10.7961 10.0644 11.0222 9.71647 11.3714L9.41797 11.6699C9.53859 12.3749 9.85076 13.0332 10.3203 13.5728C10.7899 14.1123 11.3988 14.5124 12.0804 14.7292C12.7621 14.946 13.4902 14.9711 14.1852 14.802C14.8802 14.6328 15.5152 14.2757 16.021 13.7699L18.0525 11.7384C18.4147 11.3762 18.702 10.9463 18.8981 10.4731C19.0941 9.99984 19.195 9.49263 19.195 8.98041C19.195 8.46818 19.0941 7.96098 18.8981 7.48776C18.702 7.01453 18.4142 6.58457 18.052 6.22241Z" fill="url(#paint1_radial_1897_5069)"/>
<path d="M18.052 6.22241C17.6898 5.8601 17.2598 5.57269 16.7865 5.3766C16.3133 5.18052 15.806 5.07959 15.2937 5.07959C14.7814 5.07959 14.2742 5.18052 13.8009 5.3766C13.3276 5.57269 12.8976 5.8601 12.5355 6.22241L10.505 8.25341C10.1636 8.59417 9.88849 8.99529 9.69347 9.43641C10.3921 9.11481 11.1702 9.00696 11.93 9.12641L13.685 7.37141C13.8963 7.16008 14.1471 6.99243 14.4232 6.87805C14.6993 6.76367 14.9952 6.70478 15.294 6.70476C15.5929 6.70474 15.8888 6.76358 16.1649 6.87792C16.441 6.99226 16.6919 7.15986 16.9032 7.37116C17.1145 7.58245 17.2822 7.83331 17.3966 8.10939C17.511 8.38548 17.5698 8.68139 17.5699 8.98023C17.5699 9.27907 17.5111 9.57499 17.3967 9.8511C17.2824 10.1272 17.1148 10.3781 16.9035 10.5894L14.872 12.6209C14.5366 12.9565 14.1047 13.1788 13.6367 13.2568C13.1687 13.3348 12.688 13.2646 12.2619 13.0559C11.8358 12.8473 11.4855 12.5107 11.2602 12.0931C11.0348 11.6756 10.9456 11.1981 11.005 10.7274C10.5168 10.7961 10.0644 11.0222 9.71647 11.3714L9.41797 11.6699C9.53859 12.3749 9.85076 13.0332 10.3203 13.5728C10.7899 14.1123 11.3988 14.5124 12.0804 14.7292C12.7621 14.946 13.4902 14.9711 14.1852 14.802C14.8802 14.6328 15.5152 14.2757 16.021 13.7699L18.0525 11.7384C18.4147 11.3762 18.702 10.9463 18.8981 10.4731C19.0941 9.99984 19.195 9.49263 19.195 8.98041C19.195 8.46818 19.0941 7.96098 18.8981 7.48776C18.702 7.01453 18.4142 6.58457 18.052 6.22241Z" fill="url(#paint2_linear_1897_5069)"/>
<path d="M18.052 6.22241C17.6898 5.8601 17.2598 5.57269 16.7865 5.3766C16.3133 5.18052 15.806 5.07959 15.2937 5.07959C14.7814 5.07959 14.2742 5.18052 13.8009 5.3766C13.3276 5.57269 12.8976 5.8601 12.5355 6.22241L10.505 8.25341C10.1636 8.59417 9.88849 8.99529 9.69347 9.43641C10.3921 9.11481 11.1702 9.00696 11.93 9.12641L13.685 7.37141C13.8963 7.16008 14.1471 6.99243 14.4232 6.87805C14.6993 6.76367 14.9952 6.70478 15.294 6.70476C15.5929 6.70474 15.8888 6.76358 16.1649 6.87792C16.441 6.99226 16.6919 7.15986 16.9032 7.37116C17.1145 7.58245 17.2822 7.83331 17.3966 8.10939C17.511 8.38548 17.5698 8.68139 17.5699 8.98023C17.5699 9.27907 17.5111 9.57499 17.3967 9.8511C17.2824 10.1272 17.1148 10.3781 16.9035 10.5894L14.872 12.6209C14.5366 12.9565 14.1047 13.1788 13.6367 13.2568C13.1687 13.3348 12.688 13.2646 12.2619 13.0559C11.8358 12.8473 11.4855 12.5107 11.2602 12.0931C11.0348 11.6756 10.9456 11.1981 11.005 10.7274C10.5168 10.7961 10.0644 11.0222 9.71647 11.3714L9.41797 11.6699C9.53859 12.3749 9.85076 13.0332 10.3203 13.5728C10.7899 14.1123 11.3988 14.5124 12.0804 14.7292C12.7621 14.946 13.4902 14.9711 14.1852 14.802C14.8802 14.6328 15.5152 14.2757 16.021 13.7699L18.0525 11.7384C18.4147 11.3762 18.702 10.9463 18.8981 10.4731C19.0941 9.99984 19.195 9.49263 19.195 8.98041C19.195 8.46818 19.0941 7.96098 18.8981 7.48776C18.702 7.01453 18.4142 6.58457 18.052 6.22241Z" fill="url(#paint3_radial_1897_5069)"/>
<path d="M18.052 6.22241C17.6898 5.8601 17.2598 5.57269 16.7865 5.3766C16.3133 5.18052 15.806 5.07959 15.2937 5.07959C14.7814 5.07959 14.2742 5.18052 13.8009 5.3766C13.3276 5.57269 12.8976 5.8601 12.5355 6.22241L10.505 8.25341C10.1636 8.59417 9.88849 8.99529 9.69347 9.43641C10.3921 9.11481 11.1702 9.00696 11.93 9.12641L13.685 7.37141C13.8963 7.16008 14.1471 6.99243 14.4232 6.87805C14.6993 6.76367 14.9952 6.70478 15.294 6.70476C15.5929 6.70474 15.8888 6.76358 16.1649 6.87792C16.441 6.99226 16.6919 7.15986 16.9032 7.37116C17.1145 7.58245 17.2822 7.83331 17.3966 8.10939C17.511 8.38548 17.5698 8.68139 17.5699 8.98023C17.5699 9.27907 17.5111 9.57499 17.3967 9.8511C17.2824 10.1272 17.1148 10.3781 16.9035 10.5894L14.872 12.6209C14.5366 12.9565 14.1047 13.1788 13.6367 13.2568C13.1687 13.3348 12.688 13.2646 12.2619 13.0559C11.8358 12.8473 11.4855 12.5107 11.2602 12.0931C11.0348 11.6756 10.9456 11.1981 11.005 10.7274C10.5168 10.7961 10.0644 11.0222 9.71647 11.3714L9.41797 11.6699C9.53859 12.3749 9.85076 13.0332 10.3203 13.5728C10.7899 14.1123 11.3988 14.5124 12.0804 14.7292C12.7621 14.946 13.4902 14.9711 14.1852 14.802C14.8802 14.6328 15.5152 14.2757 16.021 13.7699L18.0525 11.7384C18.4147 11.3762 18.702 10.9463 18.8981 10.4731C19.0941 9.99984 19.195 9.49263 19.195 8.98041C19.195 8.46818 19.0941 7.96098 18.8981 7.48776C18.702 7.01453 18.4142 6.58457 18.052 6.22241Z" fill="url(#paint4_radial_1897_5069)"/>
<g filter="url(#filter1_f_1897_5069)">
<path d="M17.7566 6.66504L17.7562 6.66468C16.5173 5.42575 14.5086 5.42574 13.2696 6.66468L11.1664 8.76797C9.92742 10.0069 9.92742 12.0156 11.1664 13.2546L11.1667 13.2549C12.4056 14.4939 14.4144 14.4939 15.6533 13.2549L17.7566 11.1516C18.9955 9.91269 18.9955 7.90398 17.7566 6.66504Z" stroke="url(#paint5_linear_1897_5069)" stroke-width="0.625"/>
<path d="M17.7566 6.66504L17.7562 6.66468C16.5173 5.42575 14.5086 5.42574 13.2696 6.66468L11.1664 8.76797C9.92742 10.0069 9.92742 12.0156 11.1664 13.2546L11.1667 13.2549C12.4056 14.4939 14.4144 14.4939 15.6533 13.2549L17.7566 11.1516C18.9955 9.91269 18.9955 7.90398 17.7566 6.66504Z" stroke="url(#paint6_linear_1897_5069)" stroke-width="0.625"/>
</g>
<g filter="url(#filter2_i_1897_5069)">
<path d="M11.9295 9.12649C12.7456 9.25363 13.4999 9.63754 14.083 10.2225C14.6547 10.7925 15.0347 11.5266 15.17 12.3225L14.8715 12.621C14.5235 12.97 14.0711 13.1959 13.583 13.2645C13.6267 12.9203 13.5909 12.5708 13.4784 12.2426C13.3659 11.9145 13.1796 11.6165 12.934 11.3715C12.6846 11.1215 12.3804 10.9331 12.0454 10.8213C11.7105 10.7095 11.3541 10.6774 11.0045 10.7275C10.5164 10.7962 10.064 11.0223 9.71601 11.3715L7.68451 13.4025C7.25771 13.8293 7.01794 14.4082 7.01794 15.0117C7.01794 15.6153 7.25771 16.1942 7.68451 16.621C8.11131 17.0478 8.69017 17.2876 9.29376 17.2876C9.89735 17.2876 10.4762 17.0478 10.903 16.621L12.658 14.8655C13.4178 14.9849 14.1959 14.8771 14.8945 14.5555C14.6995 14.9966 14.4243 15.3977 14.083 15.7385L12.052 17.77C11.3205 18.5016 10.3283 18.9126 9.29369 18.9127C8.2591 18.9127 7.26686 18.5018 6.53526 17.7702C5.80366 17.0387 5.39263 16.0465 5.39258 15.0119C5.39253 13.9773 5.80348 12.9851 6.53501 12.2535L8.56651 10.2225C9.00075 9.78745 9.53178 9.46135 10.1162 9.27086C10.7006 9.08037 11.3218 9.0309 11.929 9.12649" fill="#C8BDCD"/>
</g>
<path d="M11.9295 9.12649C12.7456 9.25363 13.4999 9.63754 14.083 10.2225C14.6547 10.7925 15.0347 11.5266 15.17 12.3225L14.8715 12.621C14.5235 12.97 14.0711 13.1959 13.583 13.2645C13.6267 12.9203 13.5909 12.5708 13.4784 12.2426C13.3659 11.9145 13.1796 11.6165 12.934 11.3715C12.6846 11.1215 12.3804 10.9331 12.0454 10.8213C11.7105 10.7095 11.3541 10.6774 11.0045 10.7275C10.5164 10.7962 10.064 11.0223 9.71601 11.3715L7.68451 13.4025C7.25771 13.8293 7.01794 14.4082 7.01794 15.0117C7.01794 15.6153 7.25771 16.1942 7.68451 16.621C8.11131 17.0478 8.69017 17.2876 9.29376 17.2876C9.89735 17.2876 10.4762 17.0478 10.903 16.621L12.658 14.8655C13.4178 14.9849 14.1959 14.8771 14.8945 14.5555C14.6995 14.9966 14.4243 15.3977 14.083 15.7385L12.052 17.77C11.3205 18.5016 10.3283 18.9126 9.29369 18.9127C8.2591 18.9127 7.26686 18.5018 6.53526 17.7702C5.80366 17.0387 5.39263 16.0465 5.39258 15.0119C5.39253 13.9773 5.80348 12.9851 6.53501 12.2535L8.56651 10.2225C9.00075 9.78745 9.53178 9.46135 10.1162 9.27086C10.7006 9.08037 11.3218 9.0309 11.929 9.12649" fill="url(#paint7_radial_1897_5069)"/>
<path d="M11.9295 9.12649C12.7456 9.25363 13.4999 9.63754 14.083 10.2225C14.6547 10.7925 15.0347 11.5266 15.17 12.3225L14.8715 12.621C14.5235 12.97 14.0711 13.1959 13.583 13.2645C13.6267 12.9203 13.5909 12.5708 13.4784 12.2426C13.3659 11.9145 13.1796 11.6165 12.934 11.3715C12.6846 11.1215 12.3804 10.9331 12.0454 10.8213C11.7105 10.7095 11.3541 10.6774 11.0045 10.7275C10.5164 10.7962 10.064 11.0223 9.71601 11.3715L7.68451 13.4025C7.25771 13.8293 7.01794 14.4082 7.01794 15.0117C7.01794 15.6153 7.25771 16.1942 7.68451 16.621C8.11131 17.0478 8.69017 17.2876 9.29376 17.2876C9.89735 17.2876 10.4762 17.0478 10.903 16.621L12.658 14.8655C13.4178 14.9849 14.1959 14.8771 14.8945 14.5555C14.6995 14.9966 14.4243 15.3977 14.083 15.7385L12.052 17.77C11.3205 18.5016 10.3283 18.9126 9.29369 18.9127C8.2591 18.9127 7.26686 18.5018 6.53526 17.7702C5.80366 17.0387 5.39263 16.0465 5.39258 15.0119C5.39253 13.9773 5.80348 12.9851 6.53501 12.2535L8.56651 10.2225C9.00075 9.78745 9.53178 9.46135 10.1162 9.27086C10.7006 9.08037 11.3218 9.0309 11.929 9.12649" fill="url(#paint8_radial_1897_5069)"/>
<path d="M11.9295 9.12649C12.7456 9.25363 13.4999 9.63754 14.083 10.2225C14.6547 10.7925 15.0347 11.5266 15.17 12.3225L14.8715 12.621C14.5235 12.97 14.0711 13.1959 13.583 13.2645C13.6267 12.9203 13.5909 12.5708 13.4784 12.2426C13.3659 11.9145 13.1796 11.6165 12.934 11.3715C12.6846 11.1215 12.3804 10.9331 12.0454 10.8213C11.7105 10.7095 11.3541 10.6774 11.0045 10.7275C10.5164 10.7962 10.064 11.0223 9.71601 11.3715L7.68451 13.4025C7.25771 13.8293 7.01794 14.4082 7.01794 15.0117C7.01794 15.6153 7.25771 16.1942 7.68451 16.621C8.11131 17.0478 8.69017 17.2876 9.29376 17.2876C9.89735 17.2876 10.4762 17.0478 10.903 16.621L12.658 14.8655C13.4178 14.9849 14.1959 14.8771 14.8945 14.5555C14.6995 14.9966 14.4243 15.3977 14.083 15.7385L12.052 17.77C11.3205 18.5016 10.3283 18.9126 9.29369 18.9127C8.2591 18.9127 7.26686 18.5018 6.53526 17.7702C5.80366 17.0387 5.39263 16.0465 5.39258 15.0119C5.39253 13.9773 5.80348 12.9851 6.53501 12.2535L8.56651 10.2225C9.00075 9.78745 9.53178 9.46135 10.1162 9.27086C10.7006 9.08037 11.3218 9.0309 11.929 9.12649" fill="url(#paint9_linear_1897_5069)"/>
<path d="M11.9295 9.12649C12.7456 9.25363 13.4999 9.63754 14.083 10.2225C14.6547 10.7925 15.0347 11.5266 15.17 12.3225L14.8715 12.621C14.5235 12.97 14.0711 13.1959 13.583 13.2645C13.6267 12.9203 13.5909 12.5708 13.4784 12.2426C13.3659 11.9145 13.1796 11.6165 12.934 11.3715C12.6846 11.1215 12.3804 10.9331 12.0454 10.8213C11.7105 10.7095 11.3541 10.6774 11.0045 10.7275C10.5164 10.7962 10.064 11.0223 9.71601 11.3715L7.68451 13.4025C7.25771 13.8293 7.01794 14.4082 7.01794 15.0117C7.01794 15.6153 7.25771 16.1942 7.68451 16.621C8.11131 17.0478 8.69017 17.2876 9.29376 17.2876C9.89735 17.2876 10.4762 17.0478 10.903 16.621L12.658 14.8655C13.4178 14.9849 14.1959 14.8771 14.8945 14.5555C14.6995 14.9966 14.4243 15.3977 14.083 15.7385L12.052 17.77C11.3205 18.5016 10.3283 18.9126 9.29369 18.9127C8.2591 18.9127 7.26686 18.5018 6.53526 17.7702C5.80366 17.0387 5.39263 16.0465 5.39258 15.0119C5.39253 13.9773 5.80348 12.9851 6.53501 12.2535L8.56651 10.2225C9.00075 9.78745 9.53178 9.46135 10.1162 9.27086C10.7006 9.08037 11.3218 9.0309 11.929 9.12649" fill="url(#paint10_radial_1897_5069)"/>
<path d="M11.9295 9.12649C12.7456 9.25363 13.4999 9.63754 14.083 10.2225C14.6547 10.7925 15.0347 11.5266 15.17 12.3225L14.8715 12.621C14.5235 12.97 14.0711 13.1959 13.583 13.2645C13.6267 12.9203 13.5909 12.5708 13.4784 12.2426C13.3659 11.9145 13.1796 11.6165 12.934 11.3715C12.6846 11.1215 12.3804 10.9331 12.0454 10.8213C11.7105 10.7095 11.3541 10.6774 11.0045 10.7275C10.5164 10.7962 10.064 11.0223 9.71601 11.3715L7.68451 13.4025C7.25771 13.8293 7.01794 14.4082 7.01794 15.0117C7.01794 15.6153 7.25771 16.1942 7.68451 16.621C8.11131 17.0478 8.69017 17.2876 9.29376 17.2876C9.89735 17.2876 10.4762 17.0478 10.903 16.621L12.658 14.8655C13.4178 14.9849 14.1959 14.8771 14.8945 14.5555C14.6995 14.9966 14.4243 15.3977 14.083 15.7385L12.052 17.77C11.3205 18.5016 10.3283 18.9126 9.29369 18.9127C8.2591 18.9127 7.26686 18.5018 6.53526 17.7702C5.80366 17.0387 5.39263 16.0465 5.39258 15.0119C5.39253 13.9773 5.80348 12.9851 6.53501 12.2535L8.56651 10.2225C9.00075 9.78745 9.53178 9.46135 10.1162 9.27086C10.7006 9.08037 11.3218 9.0309 11.929 9.12649" fill="url(#paint11_radial_1897_5069)"/>
<g filter="url(#filter3_f_1897_5069)">
<path d="M13.6172 10.6606L13.6168 10.6603C12.3779 9.42135 10.3692 9.42135 9.13024 10.6603L7.30095 12.4896C6.06202 13.7285 6.06202 15.7372 7.30095 16.9762L7.30131 16.9765C8.54025 18.2155 10.549 18.2155 11.7879 16.9765L13.6172 15.1472C14.8561 13.9083 14.8561 11.8996 13.6172 10.6606Z" stroke="url(#paint12_linear_1897_5069)" stroke-width="0.625"/>
<path d="M13.6172 10.6606L13.6168 10.6603C12.3779 9.42135 10.3692 9.42135 9.13024 10.6603L7.30095 12.4896C6.06202 13.7285 6.06202 15.7372 7.30095 16.9762L7.30131 16.9765C8.54025 18.2155 10.549 18.2155 11.7879 16.9765L13.6172 15.1472C14.8561 13.9083 14.8561 11.8996 13.6172 10.6606Z" stroke="url(#paint13_linear_1897_5069)" stroke-width="0.625"/>
</g>
</g>
<defs>
<filter id="filter0_i_1897_5069" x="9.41797" y="4.75459" width="10.1021" height="10.158" filterUnits="userSpaceOnUse" color-interpolation-filters="sRGB">
<feFlood flood-opacity="0" result="BackgroundImageFix"/>
<feBlend mode="normal" in="SourceGraphic" in2="BackgroundImageFix" result="shape"/>
<feColorMatrix in="SourceAlpha" type="matrix" values="0 0 0 0 0 0 0 0 0 0 0 0 0 0 0 0 0 0 127 0" result="hardAlpha"/>
<feOffset dx="0.325" dy="-0.325"/>
<feGaussianBlur stdDeviation="0.3"/>
<feComposite in2="hardAlpha" operator="arithmetic" k2="-1" k3="1"/>
<feColorMatrix type="matrix" values="0 0 0 0 0.65098 0 0 0 0 0.588235 0 0 0 0 0.701961 0 0 0 1 0"/>
<feBlend mode="normal" in2="shape" result="effect1_innerShadow_1897_5069"/>
</filter>
<filter id="filter1_f_1897_5069" x="9.42468" y="4.92285" width="10.0736" height="10.0737" filterUnits="userSpaceOnUse" color-interpolation-filters="sRGB">
<feFlood flood-opacity="0" result="BackgroundImageFix"/>
<feBlend mode="normal" in="SourceGraphic" in2="BackgroundImageFix" result="shape"/>
<feGaussianBlur stdDeviation="0.25" result="effect1_foregroundBlur_1897_5069"/>
</filter>
<filter id="filter2_i_1897_5069" x="5.39258" y="8.7541" width="10.1025" height="10.1585" filterUnits="userSpaceOnUse" color-interpolation-filters="sRGB">
<feFlood flood-opacity="0" result="BackgroundImageFix"/>
<feBlend mode="normal" in="SourceGraphic" in2="BackgroundImageFix" result="shape"/>
<feColorMatrix in="SourceAlpha" type="matrix" values="0 0 0 0 0 0 0 0 0 0 0 0 0 0 0 0 0 0 127 0" result="hardAlpha"/>
<feOffset dx="0.325" dy="-0.325"/>
<feGaussianBlur stdDeviation="0.3"/>
<feComposite in2="hardAlpha" operator="arithmetic" k2="-1" k3="1"/>
<feColorMatrix type="matrix" values="0 0 0 0 0.65098 0 0 0 0 0.588235 0 0 0 0 0.701961 0 0 0 1 0"/>
<feBlend mode="normal" in2="shape" result="effect1_innerShadow_1897_5069"/>
</filter>
<filter id="filter3_f_1897_5069" x="5.5592" y="8.91846" width="9.79968" height="9.7998" filterUnits="userSpaceOnUse" color-interpolation-filters="sRGB">
<feFlood flood-opacity="0" result="BackgroundImageFix"/>
<feBlend mode="normal" in="SourceGraphic" in2="BackgroundImageFix" result="shape"/>
<feGaussianBlur stdDeviation="0.25" result="effect1_foregroundBlur_1897_5069"/>
</filter>
<radialGradient id="paint0_radial_1897_5069" cx="0" cy="0" r="1" gradientUnits="userSpaceOnUse" gradientTransform="translate(13.6608 8.58338) rotate(89.324) scale(6.8887 7.00985)">
<stop offset="0.774" stop-color="#A08FAF" stop-opacity="0"/>
<stop offset="0.969" stop-color="#8C72A5"/>
</radialGradient>
<radialGradient id="paint1_radial_1897_5069" cx="0" cy="0" r="1" gradientUnits="userSpaceOnUse" gradientTransform="translate(11.283 9.39641) rotate(-71.2884) scale(1.33009 3.76554)">
<stop stop-color="#CDC4D3"/>
<stop offset="1" stop-color="#CDC4D3" stop-opacity="0"/>
</radialGradient>
<linearGradient id="paint2_linear_1897_5069" x1="10.125" y1="8.19741" x2="10.8765" y2="8.96941" gradientUnits="userSpaceOnUse">
<stop offset="0.299" stop-color="#DED6E0"/>
<stop offset="1" stop-color="#DED6E0" stop-opacity="0"/>
</linearGradient>
<radialGradient id="paint3_radial_1897_5069" cx="0" cy="0" r="1" gradientUnits="userSpaceOnUse" gradientTransform="translate(15.6925 7.93341) rotate(-77.9885) scale(1.95275 2.52192)">
<stop stop-color="#9378A9"/>
<stop offset="1" stop-color="#AB9FB5" stop-opacity="0"/>
</radialGradient>
<radialGradient id="paint4_radial_1897_5069" cx="0" cy="0" r="1" gradientUnits="userSpaceOnUse" gradientTransform="translate(10.0435 11.0219) rotate(71.2884) scale(1.33009 3.38747)">
<stop offset="0.161" stop-color="#9789A3"/>
<stop offset="1" stop-color="#9789A3" stop-opacity="0"/>
</radialGradient>
<linearGradient id="paint5_linear_1897_5069" x1="20.3573" y1="7.90106" x2="16.0447" y2="9.08688" gradientUnits="userSpaceOnUse">
<stop offset="0.272" stop-color="#F1E9F5"/>
<stop offset="1" stop-color="#F1E9F5" stop-opacity="0"/>
</linearGradient>
<linearGradient id="paint6_linear_1897_5069" x1="9.88083" y1="10.2699" x2="12.3688" y2="10.9908" gradientUnits="userSpaceOnUse">
<stop offset="0.143" stop-color="#C9BDD2"/>
<stop offset="1" stop-color="#C9BDD2" stop-opacity="0"/>
</linearGradient>
<radialGradient id="paint7_radial_1897_5069" cx="0" cy="0" r="1" gradientUnits="userSpaceOnUse" gradientTransform="translate(9.6355 12.5836) rotate(89.324) scale(6.8887 7.00985)">
<stop offset="0.774" stop-color="#A08FAF" stop-opacity="0"/>
<stop offset="0.969" stop-color="#8C72A5"/>
</radialGradient>
<radialGradient id="paint8_radial_1897_5069" cx="0" cy="0" r="1" gradientUnits="userSpaceOnUse" gradientTransform="translate(7.25851 13.3965) rotate(-71.2884) scale(1.33009 3.76554)">
<stop stop-color="#CDC4D3"/>
<stop offset="1" stop-color="#CDC4D3" stop-opacity="0"/>
</radialGradient>
<linearGradient id="paint9_linear_1897_5069" x1="6.10051" y1="12.1975" x2="6.85251" y2="12.9695" gradientUnits="userSpaceOnUse">
<stop stop-color="#DED6E0"/>
<stop offset="1" stop-color="#DED6E0" stop-opacity="0"/>
</linearGradient>
<radialGradient id="paint10_radial_1897_5069" cx="0" cy="0" r="1" gradientUnits="userSpaceOnUse" gradientTransform="translate(11.668 11.9335) rotate(-77.9885) scale(1.95275 2.52192)">
<stop offset="0.373" stop-color="#9378A9"/>
<stop offset="1" stop-color="#AB9FB5" stop-opacity="0"/>
</radialGradient>
<radialGradient id="paint11_radial_1897_5069" cx="0" cy="0" r="1" gradientUnits="userSpaceOnUse" gradientTransform="translate(14.7575 13.521) rotate(140.842) scale(3.10521 1.80793)">
<stop offset="0.249" stop-color="#92889C"/>
<stop offset="1" stop-color="#92889C" stop-opacity="0"/>
</radialGradient>
<linearGradient id="paint12_linear_1897_5069" x1="13.3241" y1="9.24537" x2="11.8448" y2="12.8757" gradientUnits="userSpaceOnUse">
<stop stop-color="#F1E9F5"/>
<stop offset="1" stop-color="#F1E9F5" stop-opacity="0"/>
</linearGradient>
<linearGradient id="paint13_linear_1897_5069" x1="7.57602" y1="17.2894" x2="8.52001" y2="14.852" gradientUnits="userSpaceOnUse">
<stop offset="0.143" stop-color="#E3D8EA"/>
<stop offset="1" stop-color="#E3D8EA" stop-opacity="0"/>
</linearGradient>
</defs>
</svg>
