<svg width="24" height="24" viewBox="0 0 24 24" fill="none" xmlns="http://www.w3.org/2000/svg">
<rect width="24" height="24" rx="5" fill="#F2F1F1"/>
<g filter="url(#filter0_i_1705_8348)">
<path d="M5.625 7.5C5.28 7.5 5 7.78 5 8.125V16.32C5 16.6655 5.28 16.945 5.625 16.945H11.1275C11.2082 17.0901 11.3262 17.211 11.4694 17.2951C11.6125 17.3793 11.7755 17.4236 11.9415 17.4236C12.1075 17.4236 12.2705 17.3793 12.4136 17.2951C12.5568 17.211 12.6748 17.0901 12.7555 16.945H18.258C18.603 16.945 18.883 16.6655 18.883 16.32V8.125C18.883 7.78 18.603 7.5 18.258 7.5H5.625Z" fill="#3E6ACA"/>
</g>
<g filter="url(#filter1_ii_1705_8348)">
<path d="M5.625 7.01611C5.28 7.01611 5 7.29611 5 7.64111V15.8361C5 16.1811 5.28 16.4611 5.625 16.4611H11.1275C11.2082 16.6062 11.3262 16.7271 11.4694 16.8112C11.6125 16.8954 11.7755 16.9397 11.9415 16.9397C12.1075 16.9397 12.2705 16.8954 12.4136 16.8112C12.5568 16.7271 12.6748 16.6062 12.7555 16.4611H18.258C18.603 16.4611 18.883 16.1811 18.883 15.8361V7.64111C18.883 7.29611 18.603 7.01611 18.258 7.01611H5.625Z" fill="url(#paint0_linear_1705_8348)"/>
</g>
<g filter="url(#filter2_f_1705_8348)">
<path d="M6.24106 6.53174L5.45856 7.50224C5.38958 7.58741 5.35182 7.69363 5.35156 7.80324V14.9497C5.35156 15.2857 5.63156 15.5582 5.97656 15.5582H17.6961C18.0411 15.5582 18.3211 15.2857 18.3211 14.9497V7.80324C18.3208 7.69363 18.283 7.58741 18.2141 7.50224L17.4311 6.53174L16.5101 13.8547H7.16206L6.24106 6.53174Z" fill="#3F9BEA"/>
</g>
<path d="M11.2224 14.8359H12.6599V15.6249C12.6625 15.7209 12.6457 15.8164 12.6107 15.9059C12.5758 15.9953 12.5232 16.0768 12.4562 16.1456C12.3892 16.2143 12.3092 16.269 12.2207 16.3063C12.1322 16.3437 12.0372 16.3629 11.9412 16.3629C11.8452 16.3629 11.7501 16.3437 11.6616 16.3063C11.5732 16.269 11.4931 16.2143 11.4261 16.1456C11.3591 16.0768 11.3066 15.9953 11.2716 15.9059C11.2366 15.8164 11.2199 15.7209 11.2224 15.6249V14.8359Z" fill="url(#paint1_radial_1705_8348)"/>
<path d="M11.2224 14.8359H12.6599V15.6249C12.6625 15.7209 12.6457 15.8164 12.6107 15.9059C12.5758 15.9953 12.5232 16.0768 12.4562 16.1456C12.3892 16.2143 12.3092 16.269 12.2207 16.3063C12.1322 16.3437 12.0372 16.3629 11.9412 16.3629C11.8452 16.3629 11.7501 16.3437 11.6616 16.3063C11.5732 16.269 11.4931 16.2143 11.4261 16.1456C11.3591 16.0768 11.3066 15.9953 11.2716 15.9059C11.2366 15.8164 11.2199 15.7209 11.2224 15.6249V14.8359Z" fill="url(#paint2_linear_1705_8348)"/>
<g filter="url(#filter3_i_1705_8348)">
<path d="M5.54792 7.21186L6.33092 6.21436L7.25192 13.7344H11.9259V15.4844H6.06592C5.72092 15.4844 5.44092 15.2044 5.44092 14.8594V7.52036C5.44106 7.40845 5.47873 7.29982 5.54792 7.21186Z" fill="url(#paint3_linear_1705_8348)"/>
</g>
<g filter="url(#filter4_i_1705_8348)">
<path d="M18.3035 7.21186L17.5205 6.21436L16.6 13.7344H11.926V15.4844H17.785C18.13 15.4844 18.41 15.2044 18.41 14.8594V7.52036C18.41 7.4085 18.3725 7.29988 18.3035 7.21186Z" fill="url(#paint4_linear_1705_8348)"/>
<path d="M18.3035 7.21186L17.5205 6.21436L16.6 13.7344H11.926V15.4844H17.785C18.13 15.4844 18.41 15.2044 18.41 14.8594V7.52036C18.41 7.4085 18.3725 7.29988 18.3035 7.21186Z" fill="url(#paint5_linear_1705_8348)"/>
</g>
<path d="M18.3035 7.21186L17.5205 6.21436L16.6 13.7344H11.926V15.4844H17.785C18.13 15.4844 18.41 15.2044 18.41 14.8594V7.52036C18.41 7.4085 18.3725 7.29988 18.3035 7.21186Z" fill="url(#paint6_linear_1705_8348)"/>
<g filter="url(#filter5_ii_1705_8348)">
<path d="M6.23854 6.5C6.23854 6.36739 6.29122 6.24021 6.38498 6.14645C6.47875 6.05268 6.60593 6 6.73854 6H10.676C11.0076 6 11.3255 6.1317 11.5599 6.36612C11.7943 6.60054 11.926 6.91848 11.926 7.25V15.4805C11.926 14.9305 11.3595 14.4845 10.703 14.4845H6.86304C6.51804 14.4845 6.23804 14.2045 6.23804 13.8595L6.23854 6.5Z" fill="url(#paint7_linear_1705_8348)"/>
<path d="M6.23854 6.5C6.23854 6.36739 6.29122 6.24021 6.38498 6.14645C6.47875 6.05268 6.60593 6 6.73854 6H10.676C11.0076 6 11.3255 6.1317 11.5599 6.36612C11.7943 6.60054 11.926 6.91848 11.926 7.25V15.4805C11.926 14.9305 11.3595 14.4845 10.703 14.4845H6.86304C6.51804 14.4845 6.23804 14.2045 6.23804 13.8595L6.23854 6.5Z" fill="url(#paint8_linear_1705_8348)"/>
<path d="M6.23854 6.5C6.23854 6.36739 6.29122 6.24021 6.38498 6.14645C6.47875 6.05268 6.60593 6 6.73854 6H10.676C11.0076 6 11.3255 6.1317 11.5599 6.36612C11.7943 6.60054 11.926 6.91848 11.926 7.25V15.4805C11.926 14.9305 11.3595 14.4845 10.703 14.4845H6.86304C6.51804 14.4845 6.23804 14.2045 6.23804 13.8595L6.23854 6.5Z" fill="url(#paint9_linear_1705_8348)"/>
</g>
<g filter="url(#filter6_ii_1705_8348)">
<path d="M17.6135 6.5C17.6135 6.36739 17.5608 6.24021 17.4671 6.14645C17.3733 6.05268 17.2461 6 17.1135 6H13.176C12.8445 6 12.5266 6.1317 12.2921 6.36612C12.0577 6.60054 11.926 6.91848 11.926 7.25V15.4805C11.926 14.9305 12.4925 14.4845 13.1485 14.4845H16.9885C17.3335 14.4845 17.6135 14.2045 17.6135 13.8595V6.5Z" fill="url(#paint10_linear_1705_8348)"/>
<path d="M17.6135 6.5C17.6135 6.36739 17.5608 6.24021 17.4671 6.14645C17.3733 6.05268 17.2461 6 17.1135 6H13.176C12.8445 6 12.5266 6.1317 12.2921 6.36612C12.0577 6.60054 11.926 6.91848 11.926 7.25V15.4805C11.926 14.9305 12.4925 14.4845 13.1485 14.4845H16.9885C17.3335 14.4845 17.6135 14.2045 17.6135 13.8595V6.5Z" fill="url(#paint11_linear_1705_8348)"/>
<path d="M17.6135 6.5C17.6135 6.36739 17.5608 6.24021 17.4671 6.14645C17.3733 6.05268 17.2461 6 17.1135 6H13.176C12.8445 6 12.5266 6.1317 12.2921 6.36612C12.0577 6.60054 11.926 6.91848 11.926 7.25V15.4805C11.926 14.9305 12.4925 14.4845 13.1485 14.4845H16.9885C17.3335 14.4845 17.6135 14.2045 17.6135 13.8595V6.5Z" fill="url(#paint12_linear_1705_8348)"/>
</g>
<defs>
<filter id="filter0_i_1705_8348" x="5" y="7.425" width="13.9581" height="9.99883" filterUnits="userSpaceOnUse" color-interpolation-filters="sRGB">
<feFlood flood-opacity="0" result="BackgroundImageFix"/>
<feBlend mode="normal" in="SourceGraphic" in2="BackgroundImageFix" result="shape"/>
<feColorMatrix in="SourceAlpha" type="matrix" values="0 0 0 0 0 0 0 0 0 0 0 0 0 0 0 0 0 0 127 0" result="hardAlpha"/>
<feOffset dx="0.075" dy="-0.075"/>
<feGaussianBlur stdDeviation="0.125"/>
<feComposite in2="hardAlpha" operator="arithmetic" k2="-1" k3="1"/>
<feColorMatrix type="matrix" values="0 0 0 0 0.305882 0 0 0 0 0.541176 0 0 0 0 0.780392 0 0 0 1 0"/>
<feBlend mode="normal" in2="shape" result="effect1_innerShadow_1705_8348"/>
</filter>
<filter id="filter1_ii_1705_8348" x="4.95" y="6.96611" width="13.9831" height="9.97383" filterUnits="userSpaceOnUse" color-interpolation-filters="sRGB">
<feFlood flood-opacity="0" result="BackgroundImageFix"/>
<feBlend mode="normal" in="SourceGraphic" in2="BackgroundImageFix" result="shape"/>
<feColorMatrix in="SourceAlpha" type="matrix" values="0 0 0 0 0 0 0 0 0 0 0 0 0 0 0 0 0 0 127 0" result="hardAlpha"/>
<feOffset dx="-0.05"/>
<feGaussianBlur stdDeviation="0.075"/>
<feComposite in2="hardAlpha" operator="arithmetic" k2="-1" k3="1"/>
<feColorMatrix type="matrix" values="0 0 0 0 0.45098 0 0 0 0 0.941176 0 0 0 0 1 0 0 0 1 0"/>
<feBlend mode="normal" in2="shape" result="effect1_innerShadow_1705_8348"/>
<feColorMatrix in="SourceAlpha" type="matrix" values="0 0 0 0 0 0 0 0 0 0 0 0 0 0 0 0 0 0 127 0" result="hardAlpha"/>
<feOffset dx="0.05" dy="-0.05"/>
<feGaussianBlur stdDeviation="0.075"/>
<feComposite in2="hardAlpha" operator="arithmetic" k2="-1" k3="1"/>
<feColorMatrix type="matrix" values="0 0 0 0 0.286275 0 0 0 0 0.666667 0 0 0 0 0.901961 0 0 0 1 0"/>
<feBlend mode="normal" in2="effect1_innerShadow_1705_8348" result="effect2_innerShadow_1705_8348"/>
</filter>
<filter id="filter2_f_1705_8348" x="5.10156" y="6.28174" width="13.4695" height="9.52637" filterUnits="userSpaceOnUse" color-interpolation-filters="sRGB">
<feFlood flood-opacity="0" result="BackgroundImageFix"/>
<feBlend mode="normal" in="SourceGraphic" in2="BackgroundImageFix" result="shape"/>
<feGaussianBlur stdDeviation="0.125" result="effect1_foregroundBlur_1705_8348"/>
</filter>
<filter id="filter3_i_1705_8348" x="5.44092" y="6.21436" width="6.53511" height="9.32002" filterUnits="userSpaceOnUse" color-interpolation-filters="sRGB">
<feFlood flood-opacity="0" result="BackgroundImageFix"/>
<feBlend mode="normal" in="SourceGraphic" in2="BackgroundImageFix" result="shape"/>
<feColorMatrix in="SourceAlpha" type="matrix" values="0 0 0 0 0 0 0 0 0 0 0 0 0 0 0 0 0 0 127 0" result="hardAlpha"/>
<feOffset dx="0.05" dy="0.05"/>
<feGaussianBlur stdDeviation="0.075"/>
<feComposite in2="hardAlpha" operator="arithmetic" k2="-1" k3="1"/>
<feColorMatrix type="matrix" values="0 0 0 0 0.694118 0 0 0 0 0.705882 0 0 0 0 0.733333 0 0 0 1 0"/>
<feBlend mode="normal" in2="shape" result="effect1_innerShadow_1705_8348"/>
</filter>
<filter id="filter4_i_1705_8348" x="11.926" y="6.21436" width="6.53389" height="9.32002" filterUnits="userSpaceOnUse" color-interpolation-filters="sRGB">
<feFlood flood-opacity="0" result="BackgroundImageFix"/>
<feBlend mode="normal" in="SourceGraphic" in2="BackgroundImageFix" result="shape"/>
<feColorMatrix in="SourceAlpha" type="matrix" values="0 0 0 0 0 0 0 0 0 0 0 0 0 0 0 0 0 0 127 0" result="hardAlpha"/>
<feOffset dx="0.05" dy="0.05"/>
<feGaussianBlur stdDeviation="0.075"/>
<feComposite in2="hardAlpha" operator="arithmetic" k2="-1" k3="1"/>
<feColorMatrix type="matrix" values="0 0 0 0 0.831373 0 0 0 0 0.835294 0 0 0 0 0.854902 0 0 0 1 0"/>
<feBlend mode="normal" in2="shape" result="effect1_innerShadow_1705_8348"/>
</filter>
<filter id="filter5_ii_1705_8348" x="6.23804" y="6" width="5.73799" height="9.50547" filterUnits="userSpaceOnUse" color-interpolation-filters="sRGB">
<feFlood flood-opacity="0" result="BackgroundImageFix"/>
<feBlend mode="normal" in="SourceGraphic" in2="BackgroundImageFix" result="shape"/>
<feColorMatrix in="SourceAlpha" type="matrix" values="0 0 0 0 0 0 0 0 0 0 0 0 0 0 0 0 0 0 127 0" result="hardAlpha"/>
<feOffset dy="0.025"/>
<feGaussianBlur stdDeviation="0.075"/>
<feComposite in2="hardAlpha" operator="arithmetic" k2="-1" k3="1"/>
<feColorMatrix type="matrix" values="0 0 0 0 0.827451 0 0 0 0 0.819608 0 0 0 0 0.854902 0 0 0 1 0"/>
<feBlend mode="normal" in2="shape" result="effect1_innerShadow_1705_8348"/>
<feColorMatrix in="SourceAlpha" type="matrix" values="0 0 0 0 0 0 0 0 0 0 0 0 0 0 0 0 0 0 127 0" result="hardAlpha"/>
<feOffset dx="0.05"/>
<feGaussianBlur stdDeviation="0.075"/>
<feComposite in2="hardAlpha" operator="arithmetic" k2="-1" k3="1"/>
<feColorMatrix type="matrix" values="0 0 0 0 0.980392 0 0 0 0 0.976471 0 0 0 0 1 0 0 0 1 0"/>
<feBlend mode="normal" in2="effect1_innerShadow_1705_8348" result="effect2_innerShadow_1705_8348"/>
</filter>
<filter id="filter6_ii_1705_8348" x="11.876" y="6" width="5.7375" height="9.50547" filterUnits="userSpaceOnUse" color-interpolation-filters="sRGB">
<feFlood flood-opacity="0" result="BackgroundImageFix"/>
<feBlend mode="normal" in="SourceGraphic" in2="BackgroundImageFix" result="shape"/>
<feColorMatrix in="SourceAlpha" type="matrix" values="0 0 0 0 0 0 0 0 0 0 0 0 0 0 0 0 0 0 127 0" result="hardAlpha"/>
<feOffset dx="-0.05"/>
<feGaussianBlur stdDeviation="0.075"/>
<feComposite in2="hardAlpha" operator="arithmetic" k2="-1" k3="1"/>
<feColorMatrix type="matrix" values="0 0 0 0 0.980392 0 0 0 0 0.976471 0 0 0 0 1 0 0 0 1 0"/>
<feBlend mode="normal" in2="shape" result="effect1_innerShadow_1705_8348"/>
<feColorMatrix in="SourceAlpha" type="matrix" values="0 0 0 0 0 0 0 0 0 0 0 0 0 0 0 0 0 0 127 0" result="hardAlpha"/>
<feOffset dy="0.025"/>
<feGaussianBlur stdDeviation="0.075"/>
<feComposite in2="hardAlpha" operator="arithmetic" k2="-1" k3="1"/>
<feColorMatrix type="matrix" values="0 0 0 0 0.827451 0 0 0 0 0.819608 0 0 0 0 0.854902 0 0 0 1 0"/>
<feBlend mode="normal" in2="effect1_innerShadow_1705_8348" result="effect2_innerShadow_1705_8348"/>
</filter>
<linearGradient id="paint0_linear_1705_8348" x1="11.9415" y1="9.20361" x2="11.9415" y2="16.9396" gradientUnits="userSpaceOnUse">
<stop stop-color="#5DD8FB"/>
<stop offset="1" stop-color="#41AEF2"/>
</linearGradient>
<radialGradient id="paint1_radial_1705_8348" cx="0" cy="0" r="1" gradientUnits="userSpaceOnUse" gradientTransform="translate(11.5234 16.2499) rotate(-26.5651) scale(1.11803 1.56874)">
<stop offset="0.232" stop-color="#306AB3"/>
<stop offset="1" stop-color="#1A4CA8"/>
</radialGradient>
<linearGradient id="paint2_linear_1705_8348" x1="11.9414" y1="15.3749" x2="11.9414" y2="15.7499" gradientUnits="userSpaceOnUse">
<stop stop-color="#1748A6"/>
<stop offset="1" stop-color="#1748A6" stop-opacity="0"/>
</linearGradient>
<linearGradient id="paint3_linear_1705_8348" x1="10.0939" y1="16.3124" x2="6.46892" y2="12.9534" gradientUnits="userSpaceOnUse">
<stop offset="0.75" stop-color="#B3A9CF"/>
<stop offset="0.932" stop-color="#B6BAC5"/>
</linearGradient>
<linearGradient id="paint4_linear_1705_8348" x1="13.758" y1="16.3124" x2="17.383" y2="12.9534" gradientUnits="userSpaceOnUse">
<stop offset="0.717" stop-color="#BBB3D9"/>
<stop offset="0.913" stop-color="#DCDDE8"/>
</linearGradient>
<linearGradient id="paint5_linear_1705_8348" x1="17.824" y1="6.42736" x2="17.824" y2="8.64786" gradientUnits="userSpaceOnUse">
<stop stop-color="#D8DAE2"/>
<stop offset="1" stop-color="#D8DAE2" stop-opacity="0"/>
</linearGradient>
<linearGradient id="paint6_linear_1705_8348" x1="11.926" y1="15.4844" x2="12.7345" y2="14.5314" gradientUnits="userSpaceOnUse">
<stop stop-color="#A699C9"/>
<stop offset="1" stop-color="#A699C9" stop-opacity="0"/>
</linearGradient>
<linearGradient id="paint7_linear_1705_8348" x1="6.23854" y1="10.7405" x2="11.5" y2="10.7405" gradientUnits="userSpaceOnUse">
<stop stop-color="#F3F1FA"/>
<stop offset="1" stop-color="#F0EBF9"/>
</linearGradient>
<linearGradient id="paint8_linear_1705_8348" x1="11.926" y1="14.8285" x2="10.5625" y2="14.8285" gradientUnits="userSpaceOnUse">
<stop stop-color="#D5CCE8"/>
<stop offset="1" stop-color="#F2EBFF" stop-opacity="0"/>
</linearGradient>
<linearGradient id="paint9_linear_1705_8348" x1="11.953" y1="14.9375" x2="11.844" y2="14.9375" gradientUnits="userSpaceOnUse">
<stop offset="0.179" stop-color="#BFB3D1"/>
<stop offset="1" stop-color="#BFB3D1" stop-opacity="0"/>
</linearGradient>
<linearGradient id="paint10_linear_1705_8348" x1="11.926" y1="10.7405" x2="17.1875" y2="10.7405" gradientUnits="userSpaceOnUse">
<stop stop-color="#F3F1FA"/>
<stop offset="1" stop-color="#F0EBF9"/>
</linearGradient>
<linearGradient id="paint11_linear_1705_8348" x1="11.926" y1="14.8285" x2="13.328" y2="14.8285" gradientUnits="userSpaceOnUse">
<stop stop-color="#D5CCE8"/>
<stop offset="1" stop-color="#F2EBFF" stop-opacity="0"/>
</linearGradient>
<linearGradient id="paint12_linear_1705_8348" x1="11.912" y1="14.9375" x2="12.0155" y2="14.9375" gradientUnits="userSpaceOnUse">
<stop stop-color="#BFB3D1"/>
<stop offset="1" stop-color="#BFB3D1" stop-opacity="0"/>
</linearGradient>
</defs>
</svg>
