<svg width="25" height="25" viewBox="0 0 25 25" fill="none" xmlns="http://www.w3.org/2000/svg">
<rect width="24" height="24" rx="5" fill="#F2F1F1"/>
<path d="M11.593 16.9648H13.918V19.4433H11.593V16.9648Z" fill="url(#paint0_linear_1382_9419)"/>
<path d="M11.593 16.9648H13.918V19.4433H11.593V16.9648Z" fill="url(#paint1_linear_1382_9419)"/>
<path d="M11.593 16.9648H13.918V19.4433H11.593V16.9648Z" fill="url(#paint2_radial_1382_9419)"/>
<g filter="url(#filter0_i_1382_9419)">
<path d="M7.02197 11.7739C7.02197 11.0446 7.3117 10.3451 7.82743 9.82938C8.34315 9.31366 9.04263 9.02393 9.77197 9.02393H16.228C16.9573 9.02393 17.6568 9.31366 18.1725 9.82938C18.6882 10.3451 18.978 11.0446 18.978 11.7739V16.4654C18.978 16.598 18.9253 16.7252 18.8315 16.819C18.7378 16.9127 18.6106 16.9654 18.478 16.9654H7.52197C7.38936 16.9654 7.26219 16.9127 7.16842 16.819C7.07465 16.7252 7.02197 16.598 7.02197 16.4654V11.7739Z" fill="url(#paint3_linear_1382_9419)"/>
<path d="M7.02197 11.7739C7.02197 11.0446 7.3117 10.3451 7.82743 9.82938C8.34315 9.31366 9.04263 9.02393 9.77197 9.02393H16.228C16.9573 9.02393 17.6568 9.31366 18.1725 9.82938C18.6882 10.3451 18.978 11.0446 18.978 11.7739V16.4654C18.978 16.598 18.9253 16.7252 18.8315 16.819C18.7378 16.9127 18.6106 16.9654 18.478 16.9654H7.52197C7.38936 16.9654 7.26219 16.9127 7.16842 16.819C7.07465 16.7252 7.02197 16.598 7.02197 16.4654V11.7739Z" fill="url(#paint4_radial_1382_9419)"/>
<path d="M7.02197 11.7739C7.02197 11.0446 7.3117 10.3451 7.82743 9.82938C8.34315 9.31366 9.04263 9.02393 9.77197 9.02393H16.228C16.9573 9.02393 17.6568 9.31366 18.1725 9.82938C18.6882 10.3451 18.978 11.0446 18.978 11.7739V16.4654C18.978 16.598 18.9253 16.7252 18.8315 16.819C18.7378 16.9127 18.6106 16.9654 18.478 16.9654H7.52197C7.38936 16.9654 7.26219 16.9127 7.16842 16.819C7.07465 16.7252 7.02197 16.598 7.02197 16.4654V11.7739Z" fill="url(#paint5_radial_1382_9419)"/>
<path d="M7.02197 11.7739C7.02197 11.0446 7.3117 10.3451 7.82743 9.82938C8.34315 9.31366 9.04263 9.02393 9.77197 9.02393H16.228C16.9573 9.02393 17.6568 9.31366 18.1725 9.82938C18.6882 10.3451 18.978 11.0446 18.978 11.7739V16.4654C18.978 16.598 18.9253 16.7252 18.8315 16.819C18.7378 16.9127 18.6106 16.9654 18.478 16.9654H7.52197C7.38936 16.9654 7.26219 16.9127 7.16842 16.819C7.07465 16.7252 7.02197 16.598 7.02197 16.4654V11.7739Z" fill="url(#paint6_radial_1382_9419)"/>
</g>
<g filter="url(#filter1_f_1382_9419)">
<path d="M7.65139 16.719H11.4764C11.5373 16.7185 11.5975 16.706 11.6536 16.6822C11.7097 16.6584 11.7605 16.6237 11.8032 16.5803C11.8458 16.5368 11.8795 16.4854 11.9023 16.4289C11.9251 16.3724 11.9365 16.3119 11.9359 16.251V11.8615C11.9359 10.4935 10.9264 9.29354 9.56389 9.29354C8.27789 9.21204 7.19189 10.251 7.19189 11.8615V16.251C7.19189 16.5095 7.39739 16.719 7.65139 16.719Z" fill="url(#paint7_linear_1382_9419)"/>
<path d="M7.65139 16.7816H11.4764C11.7654 16.7816 11.9984 16.5431 11.9984 16.2511V11.8616C11.9984 10.4666 10.9684 9.23209 9.56589 9.23159C8.23889 9.14809 7.12939 10.2226 7.12939 11.8616V16.2511C7.12939 16.5431 7.36189 16.7816 7.65139 16.7816Z" stroke="url(#paint8_radial_1382_9419)" stroke-width="0.125"/>
</g>
<g filter="url(#filter2_ii_1382_9419)">
<path d="M14.645 6.06982H17.335C17.4411 6.06982 17.5428 6.11197 17.6179 6.18698C17.6929 6.262 17.735 6.36374 17.735 6.46982V8.02982C17.735 8.13591 17.6929 8.23765 17.6179 8.31267C17.5428 8.38768 17.4411 8.42982 17.335 8.42982H14.645V6.06982Z" fill="#F64092"/>
</g>
<g filter="url(#filter3_i_1382_9419)">
<path d="M10.684 14.5068H8.79745C8.5307 14.5068 8.31445 14.723 8.31445 14.9896C8.31445 15.2562 8.5307 15.4723 8.79745 15.4723H10.684C10.9507 15.4723 11.167 15.2562 11.167 14.9896C11.167 14.723 10.9507 14.5068 10.684 14.5068Z" fill="url(#paint9_linear_1382_9419)"/>
</g>
<g filter="url(#filter4_f_1382_9419)">
<path d="M10.7079 15.0371H8.64788C8.59763 15.0371 8.55688 15.0779 8.55688 15.1281C8.55688 15.1784 8.59763 15.2191 8.64788 15.2191H10.7079C10.7581 15.2191 10.7989 15.1784 10.7989 15.1281C10.7989 15.0779 10.7581 15.0371 10.7079 15.0371Z" fill="url(#paint10_linear_1382_9419)"/>
</g>
<g filter="url(#filter5_f_1382_9419)">
<path d="M14.731 6.20898H17.3875C17.4355 6.21148 17.5425 6.25198 17.5865 6.39248" stroke="#F667A3" stroke-width="0.075" stroke-linecap="round"/>
</g>
<g filter="url(#filter6_i_1382_9419)">
<path d="M13.8169 6.14496C13.8213 5.99559 13.8837 5.85382 13.9909 5.74972C14.0982 5.64563 14.2417 5.5874 14.3911 5.5874C14.5406 5.5874 14.6841 5.64563 14.7913 5.74972C14.8986 5.85382 14.961 5.99559 14.9654 6.14496V10.953H13.8169V6.14496Z" fill="url(#paint11_linear_1382_9419)"/>
<path d="M13.8169 6.14496C13.8213 5.99559 13.8837 5.85382 13.9909 5.74972C14.0982 5.64563 14.2417 5.5874 14.3911 5.5874C14.5406 5.5874 14.6841 5.64563 14.7913 5.74972C14.8986 5.85382 14.961 5.99559 14.9654 6.14496V10.953H13.8169V6.14496Z" fill="url(#paint12_linear_1382_9419)"/>
<path d="M13.8169 6.14496C13.8213 5.99559 13.8837 5.85382 13.9909 5.74972C14.0982 5.64563 14.2417 5.5874 14.3911 5.5874C14.5406 5.5874 14.6841 5.64563 14.7913 5.74972C14.8986 5.85382 14.961 5.99559 14.9654 6.14496V10.953H13.8169V6.14496Z" fill="url(#paint13_radial_1382_9419)"/>
</g>
<g filter="url(#filter7_f_1382_9419)">
<path d="M14.7699 6.09931C14.7699 6.01426 14.701 5.94531 14.6159 5.94531C14.5309 5.94531 14.4619 6.01426 14.4619 6.09931V10.7173C14.4619 10.8024 14.5309 10.8713 14.6159 10.8713C14.701 10.8713 14.7699 10.8024 14.7699 10.7173V6.09931Z" fill="#C0B9CA"/>
</g>
<path d="M13.817 10.4688C13.5015 10.6678 13.3755 11.0613 13.3755 11.5143C13.3755 12.1688 13.7095 12.6993 14.3635 12.6993C14.6778 12.6993 14.9792 12.5744 15.2014 12.3522C15.4236 12.1299 15.5485 11.8285 15.5485 11.5143C15.5485 11.0613 15.341 10.6678 14.9675 10.4688H13.817Z" fill="url(#paint14_radial_1382_9419)"/>
<path d="M13.817 10.4688C13.5015 10.6678 13.3755 11.0613 13.3755 11.5143C13.3755 12.1688 13.7095 12.6993 14.3635 12.6993C14.6778 12.6993 14.9792 12.5744 15.2014 12.3522C15.4236 12.1299 15.5485 11.8285 15.5485 11.5143C15.5485 11.0613 15.341 10.6678 14.9675 10.4688H13.817Z" fill="url(#paint15_radial_1382_9419)"/>
<path d="M13.817 10.4688C13.5015 10.6678 13.3755 11.0613 13.3755 11.5143C13.3755 12.1688 13.7095 12.6993 14.3635 12.6993C14.6778 12.6993 14.9792 12.5744 15.2014 12.3522C15.4236 12.1299 15.5485 11.8285 15.5485 11.5143C15.5485 11.0613 15.341 10.6678 14.9675 10.4688H13.817Z" fill="url(#paint16_radial_1382_9419)"/>
<defs>
<filter id="filter0_i_1382_9419" x="7.02197" y="8.82393" width="12.1561" height="8.14141" filterUnits="userSpaceOnUse" color-interpolation-filters="sRGB">
<feFlood flood-opacity="0" result="BackgroundImageFix"/>
<feBlend mode="normal" in="SourceGraphic" in2="BackgroundImageFix" result="shape"/>
<feColorMatrix in="SourceAlpha" type="matrix" values="0 0 0 0 0 0 0 0 0 0 0 0 0 0 0 0 0 0 127 0" result="hardAlpha"/>
<feOffset dx="0.2" dy="-0.2"/>
<feGaussianBlur stdDeviation="0.1875"/>
<feComposite in2="hardAlpha" operator="arithmetic" k2="-1" k3="1"/>
<feColorMatrix type="matrix" values="0 0 0 0 0.262745 0 0 0 0 0.356863 0 0 0 0 1 0 0 0 1 0"/>
<feBlend mode="normal" in2="shape" result="effect1_innerShadow_1382_9419"/>
</filter>
<filter id="filter1_f_1382_9419" x="6.81689" y="8.91455" width="5.4939" height="8.17969" filterUnits="userSpaceOnUse" color-interpolation-filters="sRGB">
<feFlood flood-opacity="0" result="BackgroundImageFix"/>
<feBlend mode="normal" in="SourceGraphic" in2="BackgroundImageFix" result="shape"/>
<feGaussianBlur stdDeviation="0.125" result="effect1_foregroundBlur_1382_9419"/>
</filter>
<filter id="filter2_ii_1382_9419" x="14.645" y="5.94482" width="3.33997" height="2.55986" filterUnits="userSpaceOnUse" color-interpolation-filters="sRGB">
<feFlood flood-opacity="0" result="BackgroundImageFix"/>
<feBlend mode="normal" in="SourceGraphic" in2="BackgroundImageFix" result="shape"/>
<feColorMatrix in="SourceAlpha" type="matrix" values="0 0 0 0 0 0 0 0 0 0 0 0 0 0 0 0 0 0 127 0" result="hardAlpha"/>
<feOffset dx="0.25" dy="-0.125"/>
<feGaussianBlur stdDeviation="0.125"/>
<feComposite in2="hardAlpha" operator="arithmetic" k2="-1" k3="1"/>
<feColorMatrix type="matrix" values="0 0 0 0 0.847059 0 0 0 0 0.14902 0 0 0 0 0.501961 0 0 0 1 0"/>
<feBlend mode="normal" in2="shape" result="effect1_innerShadow_1382_9419"/>
<feColorMatrix in="SourceAlpha" type="matrix" values="0 0 0 0 0 0 0 0 0 0 0 0 0 0 0 0 0 0 127 0" result="hardAlpha"/>
<feOffset dx="0.25" dy="0.075"/>
<feGaussianBlur stdDeviation="0.125"/>
<feComposite in2="hardAlpha" operator="arithmetic" k2="-1" k3="1"/>
<feColorMatrix type="matrix" values="0 0 0 0 0.847059 0 0 0 0 0.14902 0 0 0 0 0.501961 0 0 0 1 0"/>
<feBlend mode="normal" in2="effect1_innerShadow_1382_9419" result="effect2_innerShadow_1382_9419"/>
</filter>
<filter id="filter3_i_1382_9419" x="8.06445" y="14.5068" width="3.10254" height="1.21533" filterUnits="userSpaceOnUse" color-interpolation-filters="sRGB">
<feFlood flood-opacity="0" result="BackgroundImageFix"/>
<feBlend mode="normal" in="SourceGraphic" in2="BackgroundImageFix" result="shape"/>
<feColorMatrix in="SourceAlpha" type="matrix" values="0 0 0 0 0 0 0 0 0 0 0 0 0 0 0 0 0 0 127 0" result="hardAlpha"/>
<feOffset dx="-0.25" dy="0.25"/>
<feGaussianBlur stdDeviation="0.1875"/>
<feComposite in2="hardAlpha" operator="arithmetic" k2="-1" k3="1"/>
<feColorMatrix type="matrix" values="0 0 0 0 0.117647 0 0 0 0 0.321569 0 0 0 0 0.823529 0 0 0 1 0"/>
<feBlend mode="normal" in2="shape" result="effect1_innerShadow_1382_9419"/>
</filter>
<filter id="filter4_f_1382_9419" x="8.30688" y="14.7871" width="2.74194" height="0.682129" filterUnits="userSpaceOnUse" color-interpolation-filters="sRGB">
<feFlood flood-opacity="0" result="BackgroundImageFix"/>
<feBlend mode="normal" in="SourceGraphic" in2="BackgroundImageFix" result="shape"/>
<feGaussianBlur stdDeviation="0.125" result="effect1_foregroundBlur_1382_9419"/>
</filter>
<filter id="filter5_f_1382_9419" x="14.6184" y="6.09639" width="3.08066" height="0.408789" filterUnits="userSpaceOnUse" color-interpolation-filters="sRGB">
<feFlood flood-opacity="0" result="BackgroundImageFix"/>
<feBlend mode="normal" in="SourceGraphic" in2="BackgroundImageFix" result="shape"/>
<feGaussianBlur stdDeviation="0.0375" result="effect1_foregroundBlur_1382_9419"/>
</filter>
<filter id="filter6_i_1382_9419" x="13.8169" y="5.4374" width="1.29844" height="5.51572" filterUnits="userSpaceOnUse" color-interpolation-filters="sRGB">
<feFlood flood-opacity="0" result="BackgroundImageFix"/>
<feBlend mode="normal" in="SourceGraphic" in2="BackgroundImageFix" result="shape"/>
<feColorMatrix in="SourceAlpha" type="matrix" values="0 0 0 0 0 0 0 0 0 0 0 0 0 0 0 0 0 0 127 0" result="hardAlpha"/>
<feOffset dx="0.15" dy="-0.15"/>
<feGaussianBlur stdDeviation="0.2125"/>
<feComposite in2="hardAlpha" operator="arithmetic" k2="-1" k3="1"/>
<feColorMatrix type="matrix" values="0 0 0 0 0.439216 0 0 0 0 0.427451 0 0 0 0 0.466667 0 0 0 1 0"/>
<feBlend mode="normal" in2="shape" result="effect1_innerShadow_1382_9419"/>
</filter>
<filter id="filter7_f_1382_9419" x="14.2119" y="5.69531" width="0.808105" height="5.42578" filterUnits="userSpaceOnUse" color-interpolation-filters="sRGB">
<feFlood flood-opacity="0" result="BackgroundImageFix"/>
<feBlend mode="normal" in="SourceGraphic" in2="BackgroundImageFix" result="shape"/>
<feGaussianBlur stdDeviation="0.125" result="effect1_foregroundBlur_1382_9419"/>
</filter>
<linearGradient id="paint0_linear_1382_9419" x1="13.411" y1="19.4433" x2="11.593" y2="19.4433" gradientUnits="userSpaceOnUse">
<stop stop-color="#8F616C"/>
<stop offset="0.42" stop-color="#7D4261"/>
<stop offset="0.774" stop-color="#5E3A43"/>
</linearGradient>
<linearGradient id="paint1_linear_1382_9419" x1="14.0515" y1="19.4433" x2="13.6765" y2="19.4433" gradientUnits="userSpaceOnUse">
<stop stop-color="#855A5D"/>
<stop offset="1" stop-color="#855A5D" stop-opacity="0"/>
</linearGradient>
<radialGradient id="paint2_radial_1382_9419" cx="0" cy="0" r="1" gradientUnits="userSpaceOnUse" gradientTransform="translate(12.7555 19.4433) rotate(-90) scale(2.47819 2.81134)">
<stop offset="0.772" stop-color="#632F53" stop-opacity="0"/>
<stop offset="1" stop-color="#5A3A46"/>
</radialGradient>
<linearGradient id="paint3_linear_1382_9419" x1="15.2625" y1="16.9654" x2="15.2625" y2="10.1249" gradientUnits="userSpaceOnUse">
<stop offset="0.743" stop-color="#4396FF"/>
<stop offset="1" stop-color="#59A1FF"/>
</linearGradient>
<radialGradient id="paint4_radial_1382_9419" cx="0" cy="0" r="1" gradientUnits="userSpaceOnUse" gradientTransform="translate(13 8.65643) rotate(90) scale(2.03125 9.4251)">
<stop offset="0.062" stop-color="#4D70A0"/>
<stop offset="1" stop-color="#3D93EB" stop-opacity="0"/>
</radialGradient>
<radialGradient id="paint5_radial_1382_9419" cx="0" cy="0" r="1" gradientUnits="userSpaceOnUse" gradientTransform="translate(14.247 11.6564) rotate(90) scale(1.65625 1.32031)">
<stop offset="0.613" stop-color="#2356E3"/>
<stop offset="1" stop-color="#4398FF" stop-opacity="0"/>
</radialGradient>
<radialGradient id="paint6_radial_1382_9419" cx="0" cy="0" r="1" gradientUnits="userSpaceOnUse" gradientTransform="translate(13.8566 10.1716) rotate(-127.25) scale(1.88441 0.830635)">
<stop offset="0.112" stop-color="#114CA0"/>
<stop offset="1" stop-color="#2476C7" stop-opacity="0"/>
</radialGradient>
<linearGradient id="paint7_linear_1382_9419" x1="9.56389" y1="9.29354" x2="9.56389" y2="16.719" gradientUnits="userSpaceOnUse">
<stop stop-color="#3A7DF2"/>
<stop offset="1" stop-color="#3D7DFF"/>
</linearGradient>
<radialGradient id="paint8_radial_1382_9419" cx="0" cy="0" r="1" gradientUnits="userSpaceOnUse" gradientTransform="translate(12.7232 10.5036) rotate(125.738) scale(4.70825 1.58375)">
<stop offset="0.263" stop-color="#5C9DFF"/>
<stop offset="1" stop-color="#5C9DFF" stop-opacity="0"/>
</radialGradient>
<linearGradient id="paint9_linear_1382_9419" x1="9.74045" y1="14.5068" x2="9.74045" y2="15.4723" gradientUnits="userSpaceOnUse">
<stop stop-color="#3B6BF1"/>
<stop offset="1" stop-color="#1872E0"/>
</linearGradient>
<linearGradient id="paint10_linear_1382_9419" x1="8.55688" y1="15.1281" x2="10.4574" y2="15.1281" gradientUnits="userSpaceOnUse">
<stop stop-color="#568FF7"/>
<stop offset="1" stop-color="#568FF7" stop-opacity="0"/>
</linearGradient>
<linearGradient id="paint11_linear_1382_9419" x1="14.0514" y1="8.81246" x2="14.9654" y2="8.81246" gradientUnits="userSpaceOnUse">
<stop stop-color="#9A85B2"/>
<stop offset="1" stop-color="#B9AFC7"/>
</linearGradient>
<linearGradient id="paint12_linear_1382_9419" x1="14.3909" y1="5.57046" x2="14.3909" y2="6.42196" gradientUnits="userSpaceOnUse">
<stop stop-color="#8C8893"/>
<stop offset="1" stop-color="#8C8893" stop-opacity="0"/>
</linearGradient>
<radialGradient id="paint13_radial_1382_9419" cx="0" cy="0" r="1" gradientUnits="userSpaceOnUse" gradientTransform="translate(14.7234 10.469) rotate(-90) scale(0.109375 0.820315)">
<stop offset="0.071" stop-color="#C3BFCA"/>
<stop offset="1" stop-color="#C3BFCA" stop-opacity="0"/>
</radialGradient>
<radialGradient id="paint14_radial_1382_9419" cx="0" cy="0" r="1" gradientUnits="userSpaceOnUse" gradientTransform="translate(14.2235 12.5938) rotate(-90) scale(1.67188 1.53319)">
<stop stop-color="#9F71CD"/>
<stop offset="1" stop-color="#9994A1"/>
</radialGradient>
<radialGradient id="paint15_radial_1382_9419" cx="0" cy="0" r="1" gradientUnits="userSpaceOnUse" gradientTransform="translate(15.239 11.3748) rotate(169.651) scale(1.82659 2.18359)">
<stop offset="0.548" stop-color="#73679F" stop-opacity="0"/>
<stop offset="1" stop-color="#60569A"/>
</radialGradient>
<radialGradient id="paint16_radial_1382_9419" cx="0" cy="0" r="1" gradientUnits="userSpaceOnUse" gradientTransform="translate(15.0435 11.0078) rotate(-31.195) scale(0.995506 0.741247)">
<stop offset="0.079" stop-color="#CBC4D6"/>
<stop offset="1" stop-color="#AFABB5" stop-opacity="0"/>
</radialGradient>
</defs>
</svg>
